<?xml version="1.0" encoding="utf-8"?>
<svg xmlns="http://www.w3.org/2000/svg" style="margin: auto; display: block; shape-rendering: auto;" width="280" height="250" preserveAspectRatio="xMidYMid">
<style type="text/css">
  text {
    text-anchor: middle; font-size: 26px; opacity: 0;
  }
</style>
<g style="transform-origin: 140px 125px; transform: scale(0.666667);">
<g transform="translate(140,125)">
  <g transform="translate(0,0)"><g class="path" style="transform: scale(1); transform-origin: -188.425px -2.70921px; animation: 1s linear -0.636429s infinite normal forwards running beat-9bc6f1dd-a896-49d6-91c7-933ead7ce6de;"><path d="M24.22-25.86L23.67-22.85L23.67-22.85Q21.96-23.20 20.03-23.52L20.03-23.52L20.03-23.52Q18.10-23.83 15.56-23.91L15.56-23.91L15.56-23.91Q12.99-23.87 11.12-23.13L11.12-23.13L11.12-23.13Q9.24-22.39 8.05-21.00L8.05-21.00L8.05-21.00Q6.86-19.62 6.28-17.71L6.28-17.71L6.28-17.71Q5.69-15.79 5.69-13.49L5.69-13.49L5.69-13.49Q5.69-10.53 6.45-8.42L6.45-8.42L6.45-8.42Q7.21-6.32 8.56-4.97L8.56-4.97L8.56-4.97Q9.91-3.63 11.70-3.00L11.70-3.00L11.70-3.00Q13.49-2.38 15.56-2.38L15.56-2.38L15.56-2.38Q16.89-2.38 17.96-2.54L17.96-2.54L17.96-2.54Q19.03-2.69 19.83-2.91L19.83-2.91L19.83-2.91Q20.63-3.12 21.29-3.39L21.29-3.39L21.29-10.53L16.42-10.53L16.42-13.46L24.61-13.46L24.61-1.79L24.61-1.79Q23.24-0.90 20.85-0.18L20.85-0.18L20.85-0.18Q18.45 0.55 15.56 0.51L15.56 0.51L15.56 0.51Q12.91 0.51 10.47-0.12L10.47-0.12L10.47-0.12Q8.03-0.74 6.14-2.32L6.14-2.32L6.14-2.32Q4.25-3.90 3.12-6.63L3.12-6.63L3.12-6.63Q1.99-9.36 1.99-13.53L1.99-13.53L1.99-13.53Q1.99-16.93 3.04-19.44L3.04-19.44L3.04-19.44Q4.09-21.96 5.91-23.61L5.91-23.61L5.91-23.61Q7.72-25.27 10.12-26.11L10.12-26.11L10.12-26.11Q12.52-26.95 15.21-26.95L15.21-26.95L15.21-26.95Q16.96-26.95 18.60-26.77L18.60-26.77L18.60-26.77Q20.24-26.60 21.61-26.38L21.61-26.38L21.61-26.38Q22.97-26.17 24.22-25.86L24.22-25.86" fill="#f4f3e4" stroke="none" stroke-width="none" transform="translate(-201.72501826286316,10.50975208623068)" style="fill: rgb(244, 243, 228);"></path></g><g class="path" style="transform: scale(1); transform-origin: -164.735px 0.759752px; animation: 1s linear -0.612857s infinite normal forwards running beat-9bc6f1dd-a896-49d6-91c7-933ead7ce6de;"><path d="M43.72-3.08L44.30-0.47L44.30-0.47Q43.41-0.20 42.45 0L42.45 0L42.45 0Q41.50 0.20 40.35 0.35L40.35 0.35L40.35 0.35Q39.20 0.51 37.95 0.51L37.95 0.51L37.95 0.51Q36.00 0.51 34.32-0.04L34.32-0.04L34.32-0.04Q32.64-0.58 31.39-1.79L31.39-1.79L31.39-1.79Q30.15-3.00 29.43-4.93L29.43-4.93L29.43-4.93Q28.70-6.86 28.70-9.67L28.70-9.67L28.70-9.67Q28.70-12.21 29.41-14.14L29.41-14.14L29.41-14.14Q30.11-16.07 31.34-17.37L31.34-17.37L31.34-17.37Q32.56-18.68 34.22-19.34L34.22-19.34L34.22-19.34Q35.88-20.01 37.83-20.01L37.83-20.01L37.83-20.01Q39.74-20.01 41.14-19.27L41.14-19.27L41.14-19.27Q42.55-18.52 43.47-17.26L43.47-17.26L43.47-17.26Q44.38-15.99 44.83-14.29L44.83-14.29L44.83-14.29Q45.28-12.60 45.28-10.72L45.28-10.72L44.69-9.01L32.10-9.01L32.10-9.01Q32.10-7.80 32.41-6.59L32.41-6.59L32.41-6.59Q32.72-5.38 33.48-4.41L33.48-4.41L33.48-4.41Q34.24-3.43 35.47-2.83L35.47-2.83L35.47-2.83Q36.70-2.22 38.53-2.22L38.53-2.22L38.53-2.22Q39.70-2.22 40.68-2.36L40.68-2.36L40.68-2.36Q41.65-2.50 42.37-2.67L42.37-2.67L42.37-2.67Q43.09-2.85 43.72-3.08L43.72-3.08zM32.21-11.51L42.04-11.51L42.04-11.51Q42.04-11.78 41.92-12.71L41.92-12.71L41.92-12.71Q41.81-13.65 41.38-14.66L41.38-14.66L41.38-14.66Q40.95-15.68 40.05-16.48L40.05-16.48L40.05-16.48Q39.16-17.28 37.67-17.28L37.67-17.28L37.67-17.28Q36.04-17.28 34.98-16.59L34.98-16.59L34.98-16.59Q33.93-15.91 33.31-14.98L33.31-14.98L33.31-14.98Q32.68-14.04 32.45-13.06L32.45-13.06L32.45-13.06Q32.21-12.09 32.21-11.51L32.21-11.51" fill="#f4f3e4" stroke="none" stroke-width="none" transform="translate(-201.72501826286316,10.50975208623068)" style="fill: rgb(244, 243, 228);"></path></g><g class="path" style="transform: scale(1); transform-origin: -144.36px 0.504752px; animation: 1s linear -0.589286s infinite normal forwards running beat-9bc6f1dd-a896-49d6-91c7-933ead7ce6de;"><path d="M49.57 0L49.57-15.72L49.57-15.72Q49.61-16.54 49.37-19.27L49.37-19.27L52.26-19.66L52.69-17.16L52.69-17.16Q53.86-17.94 55.01-18.52L55.01-18.52L55.01-18.52Q56.16-19.11 57.37-19.56L57.37-19.56L57.37-19.56Q58.58-20.01 59.71-20.01L59.71-20.01L59.71-20.01Q61.31-20.01 62.38-19.64L62.38-19.64L62.38-19.64Q63.45-19.27 64.12-18.41L64.12-18.41L64.12-18.41Q64.78-17.55 65.07-16.15L65.07-16.15L65.07-16.15Q65.36-14.74 65.36-12.64L65.36-12.64L65.36 0L62.24 0L62.24-12.29L62.24-12.29Q62.24-13.46 62.20-14.37L62.20-14.37L62.20-14.37Q62.17-15.29 61.87-15.93L61.87-15.93L61.87-15.93Q61.58-16.57 60.98-16.93L60.98-16.93L60.98-16.93Q60.37-17.28 59.28-17.28L59.28-17.28L59.28-17.28Q58.27-17.28 57.13-16.83L57.13-16.83L57.13-16.83Q56.00-16.38 54.91-15.79L54.91-15.79L54.91-15.79Q53.82-15.21 52.69-14.43L52.69-14.43L52.69 0L49.57 0" fill="#f4f3e4" stroke="none" stroke-width="none" transform="translate(-201.72501826286316,10.50975208623068)" style="fill: rgb(244, 243, 228);"></path></g><g class="path" style="transform: scale(1); transform-origin: -123.665px 0.759752px; animation: 1s linear -0.565714s infinite normal forwards running beat-9bc6f1dd-a896-49d6-91c7-933ead7ce6de;"><path d="M84.79-3.08L85.37-0.47L85.37-0.47Q84.47-0.20 83.52 0L83.52 0L83.52 0Q82.56 0.20 81.41 0.35L81.41 0.35L81.41 0.35Q80.26 0.51 79.01 0.51L79.01 0.51L79.01 0.51Q77.06 0.51 75.39-0.04L75.39-0.04L75.39-0.04Q73.71-0.58 72.46-1.79L72.46-1.79L72.46-1.79Q71.21-3.00 70.49-4.93L70.49-4.93L70.49-4.93Q69.77-6.86 69.77-9.67L69.77-9.67L69.77-9.67Q69.77-12.21 70.47-14.14L70.47-14.14L70.47-14.14Q71.17-16.07 72.40-17.37L72.40-17.37L72.40-17.37Q73.63-18.68 75.29-19.34L75.29-19.34L75.29-19.34Q76.95-20.01 78.90-20.01L78.90-20.01L78.90-20.01Q80.81-20.01 82.21-19.27L82.21-19.27L82.21-19.27Q83.62-18.52 84.53-17.26L84.53-17.26L84.53-17.26Q85.45-15.99 85.90-14.29L85.90-14.29L85.90-14.29Q86.35-12.60 86.35-10.72L86.35-10.72L85.76-9.01L73.16-9.01L73.16-9.01Q73.16-7.80 73.48-6.59L73.48-6.59L73.48-6.59Q73.79-5.38 74.55-4.41L74.55-4.41L74.55-4.41Q75.31-3.43 76.54-2.83L76.54-2.83L76.54-2.83Q77.77-2.22 79.60-2.22L79.60-2.22L79.60-2.22Q80.77-2.22 81.74-2.36L81.74-2.36L81.74-2.36Q82.72-2.50 83.44-2.67L83.44-2.67L83.44-2.67Q84.16-2.85 84.79-3.08L84.79-3.08zM73.28-11.51L83.11-11.51L83.11-11.51Q83.11-11.78 82.99-12.71L82.99-12.71L82.99-12.71Q82.88-13.65 82.45-14.66L82.45-14.66L82.45-14.66Q82.02-15.68 81.12-16.48L81.12-16.48L81.12-16.48Q80.22-17.28 78.74-17.28L78.74-17.28L78.74-17.28Q77.10-17.28 76.05-16.59L76.05-16.59L76.05-16.59Q75.00-15.91 74.37-14.98L74.37-14.98L74.37-14.98Q73.75-14.04 73.51-13.06L73.51-13.06L73.51-13.06Q73.28-12.09 73.28-11.51L73.28-11.51" fill="#f4f3e4" stroke="none" stroke-width="none" transform="translate(-201.72501826286316,10.50975208623068)" style="fill: rgb(244, 243, 228);"></path></g><g class="path" style="transform: scale(1); transform-origin: -106.35px 0.501895px; animation: 1s linear -0.542143s infinite normal forwards running beat-9bc6f1dd-a896-49d6-91c7-933ead7ce6de;"><path d="M90.64 0L90.64-16.46L90.64-16.46Q90.64-17.36 90.44-19.27L90.44-19.27L93.33-19.66L93.64-16.81L93.68-16.81L93.68-16.81Q94.38-17.71 95.04-18.37L95.04-18.37L95.04-18.37Q95.71-19.03 96.43-19.52L96.43-19.52L96.43-19.52Q97.15-20.01 97.81-20.01L97.81-20.01L97.81-20.01Q98.71-20.05 100.31-19.81L100.31-19.81L99.61-16.81L99.61-16.81Q98.32-17.04 97.81-17.00L97.81-17.00L97.81-17.00Q97.15-17.00 96.41-16.38L96.41-16.38L96.41-16.38Q95.67-15.76 95.12-15.05L95.12-15.05L95.12-15.05Q94.42-14.20 93.76-13.10L93.76-13.10L93.76 0L90.64 0" fill="#f4f3e4" stroke="none" stroke-width="none" transform="translate(-201.72501826286316,10.50975208623068)" style="fill: rgb(244, 243, 228);"></path></g><g class="path" style="transform: scale(1); transform-origin: -91.94px 0.759752px; animation: 1s linear -0.518571s infinite normal forwards running beat-9bc6f1dd-a896-49d6-91c7-933ead7ce6de;"><path d="M114.39-4.56L114.39-9.01L114.39-9.01Q113.61-8.97 112.90-8.93L112.90-8.93L112.90-8.93Q112.20-8.89 111.52-8.83L111.52-8.83L111.52-8.83Q110.84-8.78 110.29-8.70L110.29-8.70L110.29-8.70Q107.48-8.35 106.31-7.47L106.31-7.47L106.31-7.47Q105.14-6.59 105.14-4.95L105.14-4.95L105.14-4.95Q105.14-3.59 105.98-2.91L105.98-2.91L105.98-2.91Q106.82-2.22 108.19-2.22L108.19-2.22L108.19-2.22Q110.06-2.22 111.52-2.87L111.52-2.87L111.52-2.87Q112.98-3.51 114.39-4.56L114.39-4.56zM114.74 0.31L114.35-1.83L114.35-1.83Q112.51-0.78 110.94-0.14L110.94-0.14L110.94-0.14Q109.36 0.51 107.52 0.51L107.52 0.51L107.52 0.51Q104.91 0.51 103.37-0.76L103.37-0.76L103.37-0.76Q101.83-2.03 101.83-4.95L101.83-4.95L101.83-4.95Q101.83-6.47 102.61-7.61L102.61-7.61L102.61-7.61Q103.39-8.74 104.66-9.50L104.66-9.50L104.66-9.50Q105.92-10.26 107.52-10.69L107.52-10.69L107.52-10.69Q109.12-11.12 110.80-11.23L110.80-11.23L110.80-11.23Q111.50-11.31 112.63-11.37L112.63-11.37L112.63-11.37Q113.76-11.43 114.39-11.47L114.39-11.47L114.39-11.47Q114.39-12.83 114.31-13.90L114.31-13.90L114.31-13.90Q114.23-14.98 113.84-15.74L113.84-15.74L113.84-15.74Q113.45-16.50 112.69-16.89L112.69-16.89L112.69-16.89Q111.93-17.28 110.53-17.28L110.53-17.28L110.53-17.28Q109.39-17.28 108.34-17.14L108.34-17.14L108.34-17.14Q107.29-17.00 106.47-16.85L106.47-16.85L106.47-16.85Q105.49-16.65 104.68-16.42L104.68-16.42L104.05-19.11L104.05-19.11Q105.03-19.34 106.16-19.54L106.16-19.54L106.16-19.54Q107.13-19.73 108.42-19.87L108.42-19.87L108.42-19.87Q109.71-20.01 111.19-20.01L111.19-20.01L111.19-20.01Q113.18-20.01 114.41-19.42L114.41-19.42L114.41-19.42Q115.63-18.84 116.32-17.84L116.32-17.84L116.32-17.84Q117-16.85 117.25-15.58L117.25-15.58L117.25-15.58Q117.51-14.31 117.51-12.91L117.51-12.91L117.51-3.55L117.51-3.55Q117.51-3.00 117.53-2.40L117.53-2.40L117.53-2.40Q117.55-1.79 117.60-1.21L117.60-1.21L117.60-1.21Q117.66-0.62 117.74 0L117.74 0L114.74 0.31" fill="#f4f3e4" stroke="none" stroke-width="none" transform="translate(-201.72501826286316,10.50975208623068)" style="fill: rgb(244, 243, 228);"></path></g><g class="path" style="transform: scale(1); transform-origin: -74.45px -1.97025px; animation: 1s linear -0.495s infinite normal forwards running beat-9bc6f1dd-a896-49d6-91c7-933ead7ce6de;"><path d="M124.45-25.08L127.57-25.47L127.57-19.62L133.22-19.62L133.22-17.08L127.57-17.08L127.57-6.67L127.57-6.67Q127.57-5.38 127.63-4.52L127.63-4.52L127.63-4.52Q127.69-3.67 127.88-3.16L127.88-3.16L127.88-3.16Q128.08-2.65 128.43-2.44L128.43-2.44L128.43-2.44Q128.78-2.22 129.32-2.22L129.32-2.22L129.32-2.22Q130.81-2.26 132.76-3.31L132.76-3.31L133.69-0.94L133.69-0.94Q132.41-0.08 131.29 0.21L131.29 0.21L131.29 0.21Q130.18 0.51 129.09 0.51L129.09 0.51L129.09 0.51Q126.52 0.51 125.48-0.96L125.48-0.96L125.48-0.96Q124.45-2.42 124.45-5.81L124.45-5.81L124.45-17.08L120.86-17.08L120.86-19.62L124.45-19.62L124.45-25.08" fill="#f4f3e4" stroke="none" stroke-width="none" transform="translate(-201.72501826286316,10.50975208623068)" style="fill: rgb(244, 243, 228);"></path></g><g class="path" style="transform: scale(1); transform-origin: -62.965px 0.504752px; animation: 1s linear -0.471429s infinite normal forwards running beat-9bc6f1dd-a896-49d6-91c7-933ead7ce6de;"><path d="M137.20 0L137.20-19.66L140.32-20.01L140.32 0L137.20 0" fill="#f4f3e4" stroke="none" stroke-width="none" transform="translate(-201.72501826286316,10.50975208623068)" style="fill: rgb(244, 243, 228);"></path></g><g class="path" style="transform: scale(1); transform-origin: -62.87px -14.7252px; animation: 1s linear -0.447857s infinite normal forwards running beat-9bc6f1dd-a896-49d6-91c7-933ead7ce6de;"><path d="M136.69-25.23L136.69-25.23L136.69-25.23Q136.69-26.13 137.30-26.73L137.30-26.73L137.30-26.73Q137.90-27.34 138.80-27.34L138.80-27.34L138.80-27.34Q139.74-27.34 140.38-26.73L140.38-26.73L140.38-26.73Q141.02-26.13 141.02-25.23L141.02-25.23L141.02-25.23Q141.02-24.34 140.38-23.73L140.38-23.73L140.38-23.73Q139.74-23.13 138.80-23.13L138.80-23.13L138.80-23.13Q137.90-23.13 137.30-23.73L137.30-23.73L137.30-23.73Q136.69-24.34 136.69-25.23" fill="#f4f3e4" stroke="none" stroke-width="none" transform="translate(-201.72501826286316,10.50975208623068)" style="fill: rgb(244, 243, 228);"></path></g><g class="path" style="transform: scale(1); transform-origin: -47.95px 0.504752px; animation: 1s linear -0.424286s infinite normal forwards running beat-9bc6f1dd-a896-49d6-91c7-933ead7ce6de;"><path d="M145.98 0L145.98-15.72L145.98-15.72Q146.02-16.54 145.78-19.27L145.78-19.27L148.67-19.66L149.10-17.16L149.10-17.16Q150.27-17.94 151.42-18.52L151.42-18.52L151.42-18.52Q152.57-19.11 153.78-19.56L153.78-19.56L153.78-19.56Q154.99-20.01 156.12-20.01L156.12-20.01L156.12-20.01Q157.72-20.01 158.79-19.64L158.79-19.64L158.79-19.64Q159.86-19.27 160.52-18.41L160.52-18.41L160.52-18.41Q161.19-17.55 161.48-16.15L161.48-16.15L161.48-16.15Q161.77-14.74 161.77-12.64L161.77-12.64L161.77 0L158.65 0L158.65-12.29L158.65-12.29Q158.65-13.46 158.61-14.37L158.61-14.37L158.61-14.37Q158.57-15.29 158.28-15.93L158.28-15.93L158.28-15.93Q157.99-16.57 157.38-16.93L157.38-16.93L157.38-16.93Q156.78-17.28 155.69-17.28L155.69-17.28L155.69-17.28Q154.67-17.28 153.54-16.83L153.54-16.83L153.54-16.83Q152.41-16.38 151.32-15.79L151.32-15.79L151.32-15.79Q150.23-15.21 149.10-14.43L149.10-14.43L149.10 0L145.98 0" fill="#f4f3e4" stroke="none" stroke-width="none" transform="translate(-201.72501826286316,10.50975208623068)" style="fill: rgb(244, 243, 228);"></path></g><g class="path" style="transform: scale(1); transform-origin: -27.295px 5.24475px; animation: 1s linear -0.400714s infinite normal forwards running beat-9bc6f1dd-a896-49d6-91c7-933ead7ce6de;"><path d="M182.64-19.15L182.64 1.87L182.64 1.87Q182.64 3.31 182.32 4.68L182.32 4.68L182.32 4.68Q182.01 6.04 181.14 7.12L181.14 7.12L181.14 7.12Q180.26 8.19 178.68 8.83L178.68 8.83L178.68 8.83Q177.10 9.48 174.53 9.48L174.53 9.48L174.53 9.48Q172.89 9.44 171.68 9.28L171.68 9.28L171.68 9.28Q170.47 9.13 169.38 8.83L169.38 8.83L169.38 8.83Q168.28 8.54 167.39 8.15L167.39 8.15L168.21 5.42L168.21 5.42Q169.73 6.08 171.31 6.43L171.31 6.43L171.31 6.43Q172.89 6.79 174.13 6.79L174.13 6.79L174.13 6.79Q175.50 6.79 176.51 6.51L176.51 6.51L176.51 6.51Q177.53 6.24 178.21 5.60L178.21 5.60L178.21 5.60Q178.89 4.95 179.22 3.90L179.22 3.90L179.22 3.90Q179.56 2.85 179.56 1.29L179.56 1.29L179.56-1.56L179.56-1.56Q178.74-1.01 177.86-0.57L177.86-0.57L177.86-0.57Q176.98-0.12 175.99 0.20L175.99 0.20L175.99 0.20Q174.99 0.51 174.06 0.51L174.06 0.51L174.06 0.51Q170.43 0.51 168.32-2.05L168.32-2.05L168.32-2.05Q166.22-4.60 166.22-9.67L166.22-9.67L166.22-9.67Q166.22-12.60 167.13-14.57L167.13-14.57L167.13-14.57Q168.05-16.54 169.45-17.75L169.45-17.75L169.45-17.75Q170.86-18.95 172.54-19.48L172.54-19.48L172.54-19.48Q174.21-20.01 175.73-20.01L175.73-20.01L175.73-20.01Q177.72-20.01 179.38-19.68L179.38-19.68L179.38-19.68Q181.04-19.34 182.64-19.15L182.64-19.15zM174.41-2.22L174.41-2.22L174.41-2.22Q175.27-2.22 176.16-2.54L176.16-2.54L176.16-2.54Q177.06-2.85 177.90-3.28L177.90-3.28L177.90-3.28Q178.74-3.71 179.56-4.29L179.56-4.29L179.56-16.73L179.56-16.73Q179.09-16.85 178.46-17.00L178.46-17.00L178.46-17.00Q177.92-17.08 177.22-17.18L177.22-17.18L177.22-17.18Q176.51-17.28 175.73-17.28L175.73-17.28L175.73-17.28Q174.10-17.28 172.93-16.69L172.93-16.69L172.93-16.69Q171.76-16.11 171.00-15.09L171.00-15.09L171.00-15.09Q170.23-14.08 169.88-12.71L169.88-12.71L169.88-12.71Q169.53-11.35 169.53-9.83L169.53-9.83L169.53-9.83Q169.53-8.46 169.83-7.10L169.83-7.10L169.83-7.10Q170.12-5.73 170.74-4.64L170.74-4.64L170.74-4.64Q171.37-3.55 172.26-2.89L172.26-2.89L172.26-2.89Q173.16-2.22 174.41-2.22" fill="#f4f3e4" stroke="none" stroke-width="none" transform="translate(-201.72501826286316,10.50975208623068)" style="fill: rgb(244, 243, 228);"></path></g><g class="path" style="transform: scale(1); transform-origin: 4.83997px -2.71025px; animation: 1s linear -0.377143s infinite normal forwards running beat-9bc6f1dd-a896-49d6-91c7-933ead7ce6de;"><path d="M216.61-25.74L215.90-22.85L215.90-22.85Q214.93-23.17 213.84-23.42L213.84-23.42L213.84-23.42Q212.75-23.67 211.44-23.85L211.44-23.85L211.44-23.85Q210.13-24.02 208.69-24.02L208.69-24.02L208.69-24.02Q206.35-24.02 204.71-23.01L204.71-23.01L204.71-23.01Q203.07-22.00 202.04-20.42L202.04-20.42L202.04-20.42Q201.01-18.84 200.54-16.89L200.54-16.89L200.54-16.89Q200.07-14.94 200.07-13.03L200.07-13.03L200.07-13.03Q200.07-10.61 200.75-8.64L200.75-8.64L200.75-8.64Q201.44-6.67 202.62-5.28L202.62-5.28L202.62-5.28Q203.81-3.90 205.39-3.16L205.39-3.16L205.39-3.16Q206.97-2.42 208.73-2.42L208.73-2.42L208.73-2.42Q210.37-2.42 211.73-2.59L211.73-2.59L211.73-2.59Q213.10-2.77 214.07-2.96L214.07-2.96L214.07-2.96Q215.20-3.20 216.10-3.51L216.10-3.51L216.76-0.74L216.76-0.74Q215.71-0.39 214.42-0.12L214.42-0.12L214.42-0.12Q213.33 0.12 211.89 0.31L211.89 0.31L211.89 0.31Q210.44 0.51 208.73 0.51L208.73 0.51L208.73 0.51Q205.65 0.51 203.33-0.51L203.33-0.51L203.33-0.51Q201.01-1.52 199.47-3.33L199.47-3.33L199.47-3.33Q197.93-5.15 197.15-7.62L197.15-7.62L197.15-7.62Q196.37-10.10 196.37-13.06L196.37-13.06L196.37-13.06Q196.37-16.46 197.30-19.05L197.30-19.05L197.30-19.05Q198.24-21.64 199.88-23.40L199.88-23.40L199.88-23.40Q201.51-25.16 203.78-26.05L203.78-26.05L203.78-26.05Q206.04-26.95 208.73-26.95L208.73-26.95L208.73-26.95Q210.37-26.95 211.79-26.77L211.79-26.77L211.79-26.77Q213.21-26.60 214.40-26.32L214.40-26.32L214.40-26.32Q215.59-26.05 216.61-25.74L216.61-25.74" fill="#f4f3e4" stroke="none" stroke-width="none" transform="translate(-201.72501826286316,10.50975208623068)" style="fill: rgb(244, 243, 228);"></path></g><g class="path" style="transform: scale(1); transform-origin: 25.43px 0.759752px; animation: 1s linear -0.353571s infinite normal forwards running beat-9bc6f1dd-a896-49d6-91c7-933ead7ce6de;"><path d="M233.88-3.08L234.47-0.47L234.47-0.47Q233.57-0.20 232.62 0L232.62 0L232.62 0Q231.66 0.20 230.51 0.35L230.51 0.35L230.51 0.35Q229.36 0.51 228.11 0.51L228.11 0.51L228.11 0.51Q226.16 0.51 224.48-0.04L224.48-0.04L224.48-0.04Q222.81-0.58 221.56-1.79L221.56-1.79L221.56-1.79Q220.31-3.00 219.59-4.93L219.59-4.93L219.59-4.93Q218.87-6.86 218.87-9.67L218.87-9.67L218.87-9.67Q218.87-12.21 219.57-14.14L219.57-14.14L219.57-14.14Q220.27-16.07 221.50-17.37L221.50-17.37L221.50-17.37Q222.73-18.68 224.39-19.34L224.39-19.34L224.39-19.34Q226.04-20.01 227.99-20.01L227.99-20.01L227.99-20.01Q229.91-20.01 231.31-19.27L231.31-19.27L231.31-19.27Q232.71-18.52 233.63-17.26L233.63-17.26L233.63-17.26Q234.55-15.99 234.99-14.29L234.99-14.29L234.99-14.29Q235.44-12.60 235.44-10.72L235.44-10.72L234.86-9.01L222.26-9.01L222.26-9.01Q222.26-7.80 222.57-6.59L222.57-6.59L222.57-6.59Q222.89-5.38 223.65-4.41L223.65-4.41L223.65-4.41Q224.41-3.43 225.63-2.83L225.63-2.83L225.63-2.83Q226.86-2.22 228.70-2.22L228.70-2.22L228.70-2.22Q229.87-2.22 230.84-2.36L230.84-2.36L230.84-2.36Q231.82-2.50 232.54-2.67L232.54-2.67L232.54-2.67Q233.26-2.85 233.88-3.08L233.88-3.08zM222.38-11.51L232.21-11.51L232.21-11.51Q232.21-11.78 232.09-12.71L232.09-12.71L232.09-12.71Q231.97-13.65 231.54-14.66L231.54-14.66L231.54-14.66Q231.11-15.68 230.22-16.48L230.22-16.48L230.22-16.48Q229.32-17.28 227.84-17.28L227.84-17.28L227.84-17.28Q226.20-17.28 225.15-16.59L225.15-16.59L225.15-16.59Q224.09-15.91 223.47-14.98L223.47-14.98L223.47-14.98Q222.85-14.04 222.61-13.06L222.61-13.06L222.61-13.06Q222.38-12.09 222.38-11.51L222.38-11.51" fill="#f4f3e4" stroke="none" stroke-width="none" transform="translate(-201.72501826286316,10.50975208623068)" style="fill: rgb(244, 243, 228);"></path></g><g class="path" style="transform: scale(1); transform-origin: 42.75px 0.501895px; animation: 1s linear -0.33s infinite normal forwards running beat-9bc6f1dd-a896-49d6-91c7-933ead7ce6de;"><path d="M239.73 0L239.73-16.46L239.73-16.46Q239.73-17.36 239.54-19.27L239.54-19.27L242.42-19.66L242.74-16.81L242.78-16.81L242.78-16.81Q243.48-17.71 244.14-18.37L244.14-18.37L244.14-18.37Q244.80-19.03 245.52-19.52L245.52-19.52L245.52-19.52Q246.25-20.01 246.91-20.01L246.91-20.01L246.91-20.01Q247.81-20.05 249.41-19.81L249.41-19.81L248.70-16.81L248.70-16.81Q247.42-17.04 246.91-17.00L246.91-17.00L246.91-17.00Q246.25-17.00 245.51-16.38L245.51-16.38L245.51-16.38Q244.76-15.76 244.22-15.05L244.22-15.05L244.22-15.05Q243.52-14.20 242.85-13.10L242.85-13.10L242.85 0L239.73 0" fill="#f4f3e4" stroke="none" stroke-width="none" transform="translate(-201.72501826286316,10.50975208623068)" style="fill: rgb(244, 243, 228);"></path></g><g class="path" style="transform: scale(1); transform-origin: 55.38px -1.97025px; animation: 1s linear -0.306429s infinite normal forwards running beat-9bc6f1dd-a896-49d6-91c7-933ead7ce6de;"><path d="M254.28-25.08L257.40-25.47L257.40-19.62L263.06-19.62L263.06-17.08L257.40-17.08L257.40-6.67L257.40-6.67Q257.40-5.38 257.46-4.52L257.46-4.52L257.46-4.52Q257.52-3.67 257.71-3.16L257.71-3.16L257.71-3.16Q257.91-2.65 258.26-2.44L258.26-2.44L258.26-2.44Q258.61-2.22 259.16-2.22L259.16-2.22L259.16-2.22Q260.64-2.26 262.59-3.31L262.59-3.31L263.52-0.94L263.52-0.94Q262.24-0.08 261.12 0.21L261.12 0.21L261.12 0.21Q260.01 0.51 258.92 0.51L258.92 0.51L258.92 0.51Q256.35 0.51 255.31-0.96L255.31-0.96L255.31-0.96Q254.28-2.42 254.28-5.81L254.28-5.81L254.28-17.08L250.69-17.08L250.69-19.62L254.28-19.62L254.28-25.08" fill="#f4f3e4" stroke="none" stroke-width="none" transform="translate(-201.72501826286316,10.50975208623068)" style="fill: rgb(244, 243, 228);"></path></g><g class="path" style="transform: scale(1); transform-origin: 66.865px 0.504752px; animation: 1s linear -0.282857s infinite normal forwards running beat-9bc6f1dd-a896-49d6-91c7-933ead7ce6de;"><path d="M267.03 0L267.03-19.66L270.15-20.01L270.15 0L267.03 0" fill="#f4f3e4" stroke="none" stroke-width="none" transform="translate(-201.72501826286316,10.50975208623068)" style="fill: rgb(244, 243, 228);"></path></g><g class="path" style="transform: scale(1); transform-origin: 66.97px -14.7252px; animation: 1s linear -0.259286s infinite normal forwards running beat-9bc6f1dd-a896-49d6-91c7-933ead7ce6de;"><path d="M266.53-25.23L266.53-25.23L266.53-25.23Q266.53-26.13 267.13-26.73L267.13-26.73L267.13-26.73Q267.74-27.34 268.63-27.34L268.63-27.34L268.63-27.34Q269.57-27.34 270.21-26.73L270.21-26.73L270.21-26.73Q270.86-26.13 270.86-25.23L270.86-25.23L270.86-25.23Q270.86-24.34 270.21-23.73L270.21-23.73L270.21-23.73Q269.57-23.13 268.63-23.13L268.63-23.13L268.63-23.13Q267.74-23.13 267.13-23.73L267.13-23.73L267.13-23.73Q266.53-24.34 266.53-25.23" fill="#f4f3e4" stroke="none" stroke-width="none" transform="translate(-201.72501826286316,10.50975208623068)" style="fill: rgb(244, 243, 228);"></path></g><g class="path" style="transform: scale(1); transform-origin: 79.72px -4.27025px; animation: 1s linear -0.235714s infinite normal forwards running beat-9bc6f1dd-a896-49d6-91c7-933ead7ce6de;"><path d="M277.45 0L277.45-17.08L273.82-17.08L273.82-19.62L277.45-19.62L277.45-19.62Q277.45-22.35 277.82-24.24L277.82-24.24L277.82-24.24Q278.19-26.13 279.01-27.32L279.01-27.32L279.01-27.32Q279.82-28.51 281.11-29.04L281.11-29.04L281.11-29.04Q282.40-29.56 284.23-29.56L284.23-29.56L284.23-29.56Q285.71-29.56 287.00-29.07L287.00-29.07L287.00-29.07Q288.29-28.59 289.07-27.89L289.07-27.89L287.70-25.55L287.70-25.55Q286.92-26.13 286.08-26.48L286.08-26.48L286.08-26.48Q285.25-26.83 284.27-26.83L284.27-26.83L284.27-26.83Q282.98-26.83 282.24-26.27L282.24-26.27L282.24-26.27Q281.50-25.70 281.13-24.73L281.13-24.73L281.13-24.73Q280.76-23.75 280.66-22.44L280.66-22.44L280.66-22.44Q280.57-21.14 280.57-19.62L280.57-19.62L285.44-19.62L285.44-17.08L280.57-17.08L280.57 0L277.45 0" fill="#f4f3e4" stroke="none" stroke-width="none" transform="translate(-201.72501826286316,10.50975208623068)" style="fill: rgb(244, 243, 228);"></path></g><g class="path" style="transform: scale(1); transform-origin: 88.865px 0.504752px; animation: 1s linear -0.212143s infinite normal forwards running beat-9bc6f1dd-a896-49d6-91c7-933ead7ce6de;"><path d="M289.03 0L289.03-19.66L292.15-20.01L292.15 0L289.03 0" fill="#f4f3e4" stroke="none" stroke-width="none" transform="translate(-201.72501826286316,10.50975208623068)" style="fill: rgb(244, 243, 228);"></path></g><g class="path" style="transform: scale(1); transform-origin: 88.96px -14.7252px; animation: 1s linear -0.188571s infinite normal forwards running beat-9bc6f1dd-a896-49d6-91c7-933ead7ce6de;"><path d="M288.52-25.23L288.52-25.23L288.52-25.23Q288.52-26.13 289.13-26.73L289.13-26.73L289.13-26.73Q289.73-27.34 290.63-27.34L290.63-27.34L290.63-27.34Q291.56-27.34 292.21-26.73L292.21-26.73L292.21-26.73Q292.85-26.13 292.85-25.23L292.85-25.23L292.85-25.23Q292.85-24.34 292.21-23.73L292.21-23.73L292.21-23.73Q291.56-23.13 290.63-23.13L290.63-23.13L290.63-23.13Q289.73-23.13 289.13-23.73L289.13-23.73L289.13-23.73Q288.52-24.34 288.52-25.23" fill="#f4f3e4" stroke="none" stroke-width="none" transform="translate(-201.72501826286316,10.50975208623068)" style="fill: rgb(244, 243, 228);"></path></g><g class="path" style="transform: scale(1); transform-origin: 102.105px 0.759752px; animation: 1s linear -0.165s infinite normal forwards running beat-9bc6f1dd-a896-49d6-91c7-933ead7ce6de;"><path d="M310.56-19.38L309.93-16.77L309.93-16.77Q309.27-16.93 308.10-17.10L308.10-17.10L308.10-17.10Q306.93-17.28 305.72-17.28L305.72-17.28L305.72-17.28Q303.97-17.28 302.85-16.57L302.85-16.57L302.85-16.57Q301.74-15.87 301.12-14.76L301.12-14.76L301.12-14.76Q300.50-13.65 300.26-12.30L300.26-12.30L300.26-12.30Q300.03-10.96 300.03-9.67L300.03-9.67L300.03-9.67Q300.03-7.68 300.53-6.26L300.53-6.26L300.53-6.26Q301.04-4.84 301.88-3.94L301.88-3.94L301.88-3.94Q302.72-3.04 303.81-2.63L303.81-2.63L303.81-2.63Q304.90-2.22 306.11-2.22L306.11-2.22L306.11-2.22Q306.93-2.22 307.69-2.32L307.69-2.32L307.69-2.32Q308.45-2.42 309.09-2.55L309.09-2.55L309.09-2.55Q309.74-2.69 310.32-2.89L310.32-2.89L310.95-0.27L310.95-0.27Q310.13-0.04 309.43 0.12L309.43 0.12L309.43 0.12Q308.72 0.27 307.77 0.39L307.77 0.39L307.77 0.39Q306.81 0.51 305.72 0.51L305.72 0.51L305.72 0.51Q303.58 0.51 301.90-0.04L301.90-0.04L301.90-0.04Q300.22-0.58 299.07-1.79L299.07-1.79L299.07-1.79Q297.92-3.00 297.32-4.95L297.32-4.95L297.32-4.95Q296.71-6.90 296.71-9.71L296.71-9.71L296.71-9.71Q296.71-12.44 297.47-14.41L297.47-14.41L297.47-14.41Q298.23-16.38 299.48-17.61L299.48-17.61L299.48-17.61Q300.73-18.84 302.35-19.42L302.35-19.42L302.35-19.42Q303.97-20.01 305.72-20.01L305.72-20.01L305.72-20.01Q306.66-20.01 307.53-19.91L307.53-19.91L307.53-19.91Q308.41-19.81 309.07-19.70L309.07-19.70L309.07-19.70Q309.86-19.54 310.56-19.38L310.56-19.38" fill="#f4f3e4" stroke="none" stroke-width="none" transform="translate(-201.72501826286316,10.50975208623068)" style="fill: rgb(244, 243, 228);"></path></g><g class="path" style="transform: scale(1); transform-origin: 119.245px 0.759752px; animation: 1s linear -0.141429s infinite normal forwards running beat-9bc6f1dd-a896-49d6-91c7-933ead7ce6de;"><path d="M325.57-4.56L325.57-9.01L325.57-9.01Q324.79-8.97 324.09-8.93L324.09-8.93L324.09-8.93Q323.39-8.89 322.71-8.83L322.71-8.83L322.71-8.83Q322.02-8.78 321.48-8.70L321.48-8.70L321.48-8.70Q318.67-8.35 317.50-7.47L317.50-7.47L317.50-7.47Q316.33-6.59 316.33-4.95L316.33-4.95L316.33-4.95Q316.33-3.59 317.17-2.91L317.17-2.91L317.17-2.91Q318.01-2.22 319.37-2.22L319.37-2.22L319.37-2.22Q321.24-2.22 322.71-2.87L322.71-2.87L322.71-2.87Q324.17-3.51 325.57-4.56L325.57-4.56zM325.92 0.31L325.53-1.83L325.53-1.83Q323.70-0.78 322.12-0.14L322.12-0.14L322.12-0.14Q320.54 0.51 318.71 0.51L318.71 0.51L318.71 0.51Q316.09 0.51 314.55-0.76L314.55-0.76L314.55-0.76Q313.01-2.03 313.01-4.95L313.01-4.95L313.01-4.95Q313.01-6.47 313.79-7.61L313.79-7.61L313.79-7.61Q314.57-8.74 315.84-9.50L315.84-9.50L315.84-9.50Q317.11-10.26 318.71-10.69L318.71-10.69L318.71-10.69Q320.31-11.12 321.98-11.23L321.98-11.23L321.98-11.23Q322.69-11.31 323.82-11.37L323.82-11.37L323.82-11.37Q324.95-11.43 325.57-11.47L325.57-11.47L325.57-11.47Q325.57-12.83 325.49-13.90L325.49-13.90L325.49-13.90Q325.42-14.98 325.03-15.74L325.03-15.74L325.03-15.74Q324.64-16.50 323.88-16.89L323.88-16.89L323.88-16.89Q323.12-17.28 321.71-17.28L321.71-17.28L321.71-17.28Q320.58-17.28 319.53-17.14L319.53-17.14L319.53-17.14Q318.47-17.00 317.65-16.85L317.65-16.85L317.65-16.85Q316.68-16.65 315.86-16.42L315.86-16.42L315.24-19.11L315.24-19.11Q316.21-19.34 317.34-19.54L317.34-19.54L317.34-19.54Q318.32-19.73 319.61-19.87L319.61-19.87L319.61-19.87Q320.89-20.01 322.37-20.01L322.37-20.01L322.37-20.01Q324.36-20.01 325.59-19.42L325.59-19.42L325.59-19.42Q326.82-18.84 327.50-17.84L327.50-17.84L327.50-17.84Q328.19-16.85 328.44-15.58L328.44-15.58L328.44-15.58Q328.69-14.31 328.69-12.91L328.69-12.91L328.69-3.55L328.69-3.55Q328.69-3.00 328.71-2.40L328.71-2.40L328.71-2.40Q328.73-1.79 328.79-1.21L328.79-1.21L328.79-1.21Q328.85-0.62 328.93 0L328.93 0L325.92 0.31" fill="#f4f3e4" stroke="none" stroke-width="none" transform="translate(-201.72501826286316,10.50975208623068)" style="fill: rgb(244, 243, 228);"></path></g><g class="path" style="transform: scale(1); transform-origin: 136.74px -1.97025px; animation: 1s linear -0.117857s infinite normal forwards running beat-9bc6f1dd-a896-49d6-91c7-933ead7ce6de;"><path d="M335.63-25.08L338.75-25.47L338.75-19.62L344.41-19.62L344.41-17.08L338.75-17.08L338.75-6.67L338.75-6.67Q338.75-5.38 338.81-4.52L338.81-4.52L338.81-4.52Q338.87-3.67 339.07-3.16L339.07-3.16L339.07-3.16Q339.26-2.65 339.61-2.44L339.61-2.44L339.61-2.44Q339.96-2.22 340.51-2.22L340.51-2.22L340.51-2.22Q341.99-2.26 343.94-3.31L343.94-3.31L344.88-0.94L344.88-0.94Q343.59-0.08 342.48 0.21L342.48 0.21L342.48 0.21Q341.37 0.51 340.27 0.51L340.27 0.51L340.27 0.51Q337.70 0.51 336.67-0.96L336.67-0.96L336.67-0.96Q335.63-2.42 335.63-5.81L335.63-5.81L335.63-17.08L332.05-17.08L332.05-19.62L335.63-19.62L335.63-25.08" fill="#f4f3e4" stroke="none" stroke-width="none" transform="translate(-201.72501826286316,10.50975208623068)" style="fill: rgb(244, 243, 228);"></path></g><g class="path" style="transform: scale(1); transform-origin: 153.7px 0.759752px; animation: 1s linear -0.0942857s infinite normal forwards running beat-9bc6f1dd-a896-49d6-91c7-933ead7ce6de;"><path d="M362.15-3.08L362.74-0.47L362.74-0.47Q361.84-0.20 360.89 0L360.89 0L360.89 0Q359.93 0.20 358.78 0.35L358.78 0.35L358.78 0.35Q357.63 0.51 356.38 0.51L356.38 0.51L356.38 0.51Q354.43 0.51 352.75-0.04L352.75-0.04L352.75-0.04Q351.08-0.58 349.83-1.79L349.83-1.79L349.83-1.79Q348.58-3.00 347.86-4.93L347.86-4.93L347.86-4.93Q347.14-6.86 347.14-9.67L347.14-9.67L347.14-9.67Q347.14-12.21 347.84-14.14L347.84-14.14L347.84-14.14Q348.54-16.07 349.77-17.37L349.77-17.37L349.77-17.37Q351-18.68 352.66-19.34L352.66-19.34L352.66-19.34Q354.31-20.01 356.26-20.01L356.26-20.01L356.26-20.01Q358.18-20.01 359.58-19.27L359.58-19.27L359.58-19.27Q360.98-18.52 361.90-17.26L361.90-17.26L361.90-17.26Q362.82-15.99 363.27-14.29L363.27-14.29L363.27-14.29Q363.71-12.60 363.71-10.72L363.71-10.72L363.13-9.01L350.53-9.01L350.53-9.01Q350.53-7.80 350.84-6.59L350.84-6.59L350.84-6.59Q351.16-5.38 351.92-4.41L351.92-4.41L351.92-4.41Q352.68-3.43 353.91-2.83L353.91-2.83L353.91-2.83Q355.13-2.22 356.97-2.22L356.97-2.22L356.97-2.22Q358.14-2.22 359.11-2.36L359.11-2.36L359.11-2.36Q360.09-2.50 360.81-2.67L360.81-2.67L360.81-2.67Q361.53-2.85 362.15-3.08L362.15-3.08zM350.65-11.51L360.48-11.51L360.48-11.51Q360.48-11.78 360.36-12.71L360.36-12.71L360.36-12.71Q360.24-13.65 359.81-14.66L359.81-14.66L359.81-14.66Q359.38-15.68 358.49-16.48L358.49-16.48L358.49-16.48Q357.59-17.28 356.11-17.28L356.11-17.28L356.11-17.28Q354.47-17.28 353.42-16.59L353.42-16.59L353.42-16.59Q352.37-15.91 351.74-14.98L351.74-14.98L351.74-14.98Q351.12-14.04 350.88-13.06L350.88-13.06L350.88-13.06Q350.65-12.09 350.65-11.51L350.65-11.51" fill="#f4f3e4" stroke="none" stroke-width="none" transform="translate(-201.72501826286316,10.50975208623068)" style="fill: rgb(244, 243, 228);"></path></g><g class="path" style="transform: scale(1); transform-origin: 171.665px 0.759752px; animation: 1s linear -0.0707143s infinite normal forwards running beat-9bc6f1dd-a896-49d6-91c7-933ead7ce6de;"><path d="M379.12-19.19L378.57-16.42L378.57-16.42Q376.94-16.93 375.67-17.10L375.67-17.10L375.67-17.10Q374.40-17.28 373.35-17.28L373.35-17.28L373.35-17.28Q371.98-17.28 371.07-16.61L371.07-16.61L371.07-16.61Q370.15-15.95 370.15-14.90L370.15-14.90L370.15-14.90Q370.19-13.96 370.97-13.30L370.97-13.30L370.97-13.30Q371.75-12.64 372.78-12.11L372.78-12.11L372.78-12.11Q373.81-11.58 375.08-10.96L375.08-10.96L375.08-10.96Q376.35-10.34 377.46-9.55L377.46-9.55L377.46-9.55Q378.57-8.78 379.27-7.68L379.27-7.68L379.27-7.68Q379.98-6.59 380.02-5.07L380.02-5.07L380.02-5.07Q379.98-3.43 379.29-2.36L379.29-2.36L379.29-2.36Q378.61-1.29 377.54-0.64L377.54-0.64L377.54-0.64Q376.47 0 375.22 0.25L375.22 0.25L375.22 0.25Q373.97 0.51 372.88 0.51L372.88 0.51L372.88 0.51Q371.47 0.51 369.97 0.35L369.97 0.35L369.97 0.35Q368.47 0.20 366.76-0.31L366.76-0.31L367.34-3.12L367.34-3.12Q369.10-2.65 370.54-2.44L370.54-2.44L370.54-2.44Q371.98-2.22 372.92-2.22L372.92-2.22L372.92-2.22Q373.62-2.22 374.30-2.38L374.30-2.38L374.30-2.38Q374.98-2.54 375.53-2.83L375.53-2.83L375.53-2.83Q376.08-3.12 376.41-3.59L376.41-3.59L376.41-3.59Q376.74-4.06 376.74-4.64L376.74-4.64L376.74-4.64Q376.70-5.73 376.00-6.49L376.00-6.49L376.00-6.49Q375.30-7.25 374.19-7.86L374.19-7.86L374.19-7.86Q373.07-8.46 371.81-9.07L371.81-9.07L371.81-9.07Q370.54-9.67 369.43-10.47L369.43-10.47L369.43-10.47Q368.32-11.27 367.57-12.38L367.57-12.38L367.57-12.38Q366.83-13.49 366.83-15.13L366.83-15.13L366.83-15.13Q366.83-16.30 367.44-17.22L367.44-17.22L367.44-17.22Q368.04-18.14 369.00-18.74L369.00-18.74L369.00-18.74Q369.95-19.34 371.10-19.68L371.10-19.68L371.10-19.68Q372.25-20.01 373.35-20.01L373.35-20.01L373.35-20.01Q374.48-20.01 375.88-19.83L375.88-19.83L375.88-19.83Q377.29-19.66 379.12-19.19L379.12-19.19" fill="#f4f3e4" stroke="none" stroke-width="none" transform="translate(-201.72501826286316,10.50975208623068)" style="fill: rgb(244, 243, 228);"></path></g><g class="path" style="transform: scale(1); transform-origin: 184.045px 8.20975px; animation: 1s linear -0.0471429s infinite normal forwards running beat-9bc6f1dd-a896-49d6-91c7-933ead7ce6de;"><path d="M383.41-2.30L383.41-2.30L383.41-2.30Q383.41-3.24 384.07-3.92L384.07-3.92L384.07-3.92Q384.73-4.60 385.71-4.60L385.71-4.60L385.71-4.60Q386.72-4.60 387.43-3.92L387.43-3.92L387.43-3.92Q388.13-3.24 388.13-2.30L388.13-2.30L388.13-2.30Q388.13-1.33 387.43-0.66L387.43-0.66L387.43-0.66Q386.72 0 385.71 0L385.71 0L385.71 0Q384.73 0 384.07-0.66L384.07-0.66L384.07-0.66Q383.41-1.33 383.41-2.30" fill="#f4f3e4" stroke="none" stroke-width="none" transform="translate(-201.72501826286316,10.50975208623068)" style="fill: rgb(244, 243, 228);"></path></g><g class="path" style="transform: scale(1); transform-origin: 192.705px 8.20975px; animation: 1s linear -0.0235714s infinite normal forwards running beat-9bc6f1dd-a896-49d6-91c7-933ead7ce6de;"><path d="M392.07-2.30L392.07-2.30L392.07-2.30Q392.07-3.24 392.73-3.92L392.73-3.92L392.73-3.92Q393.39-4.60 394.37-4.60L394.37-4.60L394.37-4.60Q395.38-4.60 396.08-3.92L396.08-3.92L396.08-3.92Q396.79-3.24 396.79-2.30L396.79-2.30L396.79-2.30Q396.79-1.33 396.08-0.66L396.08-0.66L396.08-0.66Q395.38 0 394.37 0L394.37 0L394.37 0Q393.39 0 392.73-0.66L392.73-0.66L392.73-0.66Q392.07-1.33 392.07-2.30" fill="#f4f3e4" stroke="none" stroke-width="none" transform="translate(-201.72501826286316,10.50975208623068)" style="fill: rgb(244, 243, 228);"></path></g><g class="path" style="transform: scale(1); transform-origin: 201.355px 8.20975px; animation: 1s linear 0s infinite normal forwards running beat-9bc6f1dd-a896-49d6-91c7-933ead7ce6de;"><path d="M400.72-2.30L400.72-2.30L400.72-2.30Q400.72-3.24 401.39-3.92L401.39-3.92L401.39-3.92Q402.05-4.60 403.03-4.60L403.03-4.60L403.03-4.60Q404.04-4.60 404.74-3.92L404.74-3.92L404.74-3.92Q405.44-3.24 405.44-2.30L405.44-2.30L405.44-2.30Q405.44-1.33 404.74-0.66L404.74-0.66L404.74-0.66Q404.04 0 403.03 0L403.03 0L403.03 0Q402.05 0 401.39-0.66L401.39-0.66L401.39-0.66Q400.72-1.33 400.72-2.30" fill="#f4f3e4" stroke="none" stroke-width="none" transform="translate(-201.72501826286316,10.50975208623068)" style="fill: rgb(244, 243, 228);"></path></g></g>
</g>
</g>
<style id="beat-9bc6f1dd-a896-49d6-91c7-933ead7ce6de" data-anikit="">@keyframes beat-9bc6f1dd-a896-49d6-91c7-933ead7ce6de
{
  0% {
    animation-timing-function: cubic-bezier(0.1028,0.2484,0.1372,0.849);
    transform: scale(1);
  }
  34% {
    animation-timing-function: cubic-bezier(0.7116,0.2095,0.8159,0.6876);
    transform: scale(1.2);
  }
  68% {
    animation-timing-function: cubic-bezier(0.1475,0.2888,0.294,0.883);
    transform: scale(1.0268);
  }
  84% {
    animation-timing-function: cubic-bezier(0.8176,0.2193,0.867,0.6889);
    transform: scale(1.0932);
  }
  100% {
    transform: scale(1);
  }
}</style></svg>