<?xml version="1.0" encoding="utf-8"?>
<svg xmlns="http://www.w3.org/2000/svg" style="margin: auto; display: block; shape-rendering: auto;" width="280" height="250" preserveAspectRatio="xMidYMid">
<style type="text/css">
  text {
    text-anchor: middle; font-size: 26px; opacity: 0;
  }
</style>
<g style="transform-origin:140px 125px;transform:scale(1)">
<g transform="translate(140,125)">
  <g transform="translate(0,0)"><g class="path" style="transform: scale(1); transform-origin: -43.86px -1.65432px; animation: 1s linear -0.6s infinite normal forwards running beat-9bc6f1dd-a896-49d6-91c7-933ead7ce6de;"><path d="M2.29 0L2.29-17.73L4.47-17.73L4.47-2.08L12.53-2.08L12.53 0L2.29 0" fill="#f4f3e4" stroke="none" stroke-width="none" transform="translate(-51.26998293399811,7.210678213292907)" style="fill: rgb(244, 243, 228);"></path></g><g class="path" style="transform: scale(1); transform-origin: -30.99px 0.710678px; animation: 1s linear -0.54s infinite normal forwards running beat-9bc6f1dd-a896-49d6-91c7-933ead7ce6de;"><path d="M16.17-6.47L16.17-6.47L16.17-6.47Q16.17-3.95 17.30-2.72L17.30-2.72L17.30-2.72Q18.43-1.48 20.36-1.48L20.36-1.48L20.36-1.48Q22.26-1.48 23.32-2.70L23.32-2.70L23.32-2.70Q24.39-3.93 24.39-6.37L24.39-6.37L24.39-6.37Q24.39-8.97 23.26-10.24L23.26-10.24L23.26-10.24Q22.13-11.52 20.18-11.52L20.18-11.52L20.18-11.52Q18.23-11.52 17.20-10.26L17.20-10.26L17.20-10.26Q16.17-9.00 16.17-6.47zM13.96-6.50L13.96-6.50L13.96-6.50Q13.96-8.48 14.59-9.79L14.59-9.79L14.59-9.79Q15.21-11.10 16.17-11.90L16.17-11.90L16.17-11.90Q17.13-12.69 18.24-13.01L18.24-13.01L18.24-13.01Q19.34-13.34 20.33-13.34L20.33-13.34L20.33-13.34Q21.27-13.34 22.37-13.04L22.37-13.04L22.37-13.04Q23.48-12.74 24.41-11.97L24.41-11.97L24.41-11.97Q25.35-11.21 25.97-9.92L25.97-9.92L25.97-9.92Q26.60-8.63 26.60-6.66L26.60-6.66L26.60-6.66Q26.60-4.60 25.96-3.25L25.96-3.25L25.96-3.25Q25.32-1.90 24.36-1.11L24.36-1.11L24.36-1.11Q23.40-0.31 22.28 0.01L22.28 0.01L22.28 0.01Q21.16 0.34 20.20 0.34L20.20 0.34L20.20 0.34Q19.21 0.34 18.12 0.03L18.12 0.03L18.12 0.03Q17.03-0.29 16.11-1.05L16.11-1.05L16.11-1.05Q15.18-1.82 14.57-3.15L14.57-3.15L14.57-3.15Q13.96-4.47 13.96-6.50" fill="#f4f3e4" stroke="none" stroke-width="none" transform="translate(-51.26998293399811,7.210678213292907)" style="fill: rgb(244, 243, 228);"></path></g><g class="path" style="transform: scale(1); transform-origin: -17.445px 0.710678px; animation: 1s linear -0.48s infinite normal forwards running beat-9bc6f1dd-a896-49d6-91c7-933ead7ce6de;"><path d="M36.89-3.04L36.89-6.01L36.89-6.01Q36.37-5.98 35.91-5.95L35.91-5.95L35.91-5.95Q35.44-5.93 34.98-5.89L34.98-5.89L34.98-5.89Q34.53-5.85 34.16-5.80L34.16-5.80L34.16-5.80Q32.29-5.56 31.51-4.98L31.51-4.98L31.51-4.98Q30.73-4.39 30.73-3.30L30.73-3.30L30.73-3.30Q30.73-2.39 31.29-1.94L31.29-1.94L31.29-1.94Q31.85-1.48 32.76-1.48L32.76-1.48L32.76-1.48Q34.01-1.48 34.98-1.91L34.98-1.91L34.98-1.91Q35.96-2.34 36.89-3.04L36.89-3.04zM37.13 0.21L36.87-1.22L36.87-1.22Q35.65-0.52 34.59-0.09L34.59-0.09L34.59-0.09Q33.54 0.34 32.32 0.34L32.32 0.34L32.32 0.34Q30.58 0.34 29.55-0.51L29.55-0.51L29.55-0.51Q28.52-1.35 28.52-3.30L28.52-3.30L28.52-3.30Q28.52-4.32 29.04-5.07L29.04-5.07L29.04-5.07Q29.56-5.82 30.41-6.33L30.41-6.33L30.41-6.33Q31.25-6.84 32.32-7.12L32.32-7.12L32.32-7.12Q33.38-7.41 34.50-7.49L34.50-7.49L34.50-7.49Q34.97-7.54 35.72-7.58L35.72-7.58L35.72-7.58Q36.48-7.62 36.89-7.64L36.89-7.64L36.89-7.64Q36.89-8.55 36.84-9.27L36.84-9.27L36.84-9.27Q36.79-9.98 36.53-10.49L36.53-10.49L36.53-10.49Q36.27-11.00 35.76-11.26L35.76-11.26L35.76-11.26Q35.26-11.52 34.32-11.52L34.32-11.52L34.32-11.52Q33.57-11.52 32.86-11.43L32.86-11.43L32.86-11.43Q32.16-11.34 31.62-11.23L31.62-11.23L31.62-11.23Q30.97-11.10 30.42-10.95L30.42-10.95L30.00-12.74L30.00-12.74Q30.65-12.90 31.41-13.03L31.41-13.03L31.41-13.03Q32.06-13.16 32.92-13.25L32.92-13.25L32.92-13.25Q33.77-13.34 34.76-13.34L34.76-13.34L34.76-13.34Q36.09-13.34 36.91-12.95L36.91-12.95L36.91-12.95Q37.73-12.56 38.18-11.90L38.18-11.90L38.18-11.90Q38.64-11.23 38.81-10.39L38.81-10.39L38.81-10.39Q38.97-9.54 38.97-8.61L38.97-8.61L38.97-2.37L38.97-2.37Q38.97-2.00 38.99-1.60L38.99-1.60L38.99-1.60Q39.00-1.20 39.04-0.81L39.04-0.81L39.04-0.81Q39.08-0.42 39.13 0L39.13 0L37.13 0.21" fill="#f4f3e4" stroke="none" stroke-width="none" transform="translate(-51.26998293399811,7.210678213292907)" style="fill: rgb(244, 243, 228);"></path></g><g class="path" style="transform: scale(1); transform-origin: -3.77999px -2.47432px; animation: 1s linear -0.42s infinite normal forwards running beat-9bc6f1dd-a896-49d6-91c7-933ead7ce6de;"><path d="M50.80-2.86L50.80-11.13L50.80-11.13Q49.87-11.39 49.35-11.45L49.35-11.45L49.35-11.45Q48.83-11.52 48.28-11.52L48.28-11.52L48.28-11.52Q47.19-11.52 46.41-11.13L46.41-11.13L46.41-11.13Q45.63-10.74 45.12-10.05L45.12-10.05L45.12-10.05Q44.62-9.36 44.38-8.46L44.38-8.46L44.38-8.46Q44.15-7.57 44.15-6.55L44.15-6.55L44.15-6.55Q44.15-5.64 44.34-4.73L44.34-4.73L44.34-4.73Q44.54-3.82 44.95-3.09L44.95-3.09L44.95-3.09Q45.37-2.37 45.97-1.92L45.97-1.92L45.97-1.92Q46.57-1.48 47.40-1.48L47.40-1.48L47.40-1.48Q47.97-1.48 48.58-1.69L48.58-1.69L48.58-1.69Q49.19-1.90 49.71-2.17L49.71-2.17L49.71-2.17Q50.23-2.44 50.80-2.86L50.80-2.86zM51.04 0.21L50.83-1.04L50.83-1.04Q50.23-0.62 49.67-0.35L49.67-0.35L49.67-0.35Q49.11-0.08 48.45 0.13L48.45 0.13L48.45 0.13Q47.79 0.34 47.16 0.34L47.16 0.34L47.16 0.34Q44.72 0.34 43.33-1.39L43.33-1.39L43.33-1.39Q41.94-3.12 41.94-6.45L41.94-6.45L41.94-6.45Q41.94-8.42 42.58-9.75L42.58-9.75L42.58-9.75Q43.21-11.08 44.17-11.87L44.17-11.87L44.17-11.87Q45.14-12.66 46.24-13.00L46.24-13.00L46.24-13.00Q47.35-13.34 48.28-13.34L48.28-13.34L48.28-13.34Q48.75-13.34 49.27-13.27L49.27-13.27L49.27-13.27Q49.79-13.21 50.80-12.95L50.80-12.95L50.80-19.47L52.88-19.71L52.88-2.37L52.88-2.37Q52.88-2.00 52.90-1.60L52.90-1.60L52.90-1.60Q52.91-1.20 52.95-0.81L52.95-0.81L52.95-0.81Q52.99-0.42 53.04 0L53.04 0L51.04 0.21" fill="#f4f3e4" stroke="none" stroke-width="none" transform="translate(-51.26998293399811,7.210678213292907)" style="fill: rgb(244, 243, 228);"></path></g><g class="path" style="transform: scale(1); transform-origin: 6.42002px 0.540678px; animation: 1s linear -0.36s infinite normal forwards running beat-9bc6f1dd-a896-49d6-91c7-933ead7ce6de;"><path d="M56.65 0L56.65-13.10L58.73-13.34L58.73 0L56.65 0" fill="#f4f3e4" stroke="none" stroke-width="none" transform="translate(-51.26998293399811,7.210678213292907)" style="fill: rgb(244, 243, 228);"></path></g><g class="path" style="transform: scale(1); transform-origin: 6.49002px -9.61432px; animation: 1s linear -0.3s infinite normal forwards running beat-9bc6f1dd-a896-49d6-91c7-933ead7ce6de;"><path d="M56.32-16.82L56.32-16.82L56.32-16.82Q56.32-17.42 56.72-17.82L56.72-17.82L56.72-17.82Q57.12-18.23 57.72-18.23L57.72-18.23L57.72-18.23Q58.34-18.23 58.77-17.82L58.77-17.82L58.77-17.82Q59.20-17.42 59.20-16.82L59.20-16.82L59.20-16.82Q59.20-16.22 58.77-15.82L58.77-15.82L58.77-15.82Q58.34-15.42 57.72-15.42L57.72-15.42L57.72-15.42Q57.12-15.42 56.72-15.82L56.72-15.82L56.72-15.82Q56.32-16.22 56.32-16.82" fill="#f4f3e4" stroke="none" stroke-width="none" transform="translate(-51.26998293399811,7.210678213292907)" style="fill: rgb(244, 243, 228);"></path></g><g class="path" style="transform: scale(1); transform-origin: 16.43px 0.540678px; animation: 1s linear -0.24s infinite normal forwards running beat-9bc6f1dd-a896-49d6-91c7-933ead7ce6de;"><path d="M62.50 0L62.50-10.48L62.50-10.48Q62.53-11.02 62.37-12.84L62.37-12.84L64.30-13.10L64.58-11.44L64.58-11.44Q65.36-11.96 66.13-12.35L66.13-12.35L66.13-12.35Q66.90-12.74 67.70-13.04L67.70-13.04L67.70-13.04Q68.51-13.34 69.26-13.34L69.26-13.34L69.26-13.34Q70.33-13.34 71.05-13.09L71.05-13.09L71.05-13.09Q71.76-12.84 72.20-12.27L72.20-12.27L72.20-12.27Q72.64-11.70 72.84-10.76L72.84-10.76L72.84-10.76Q73.03-9.83 73.03-8.42L73.03-8.42L73.03 0L70.95 0L70.95-8.19L70.95-8.19Q70.95-8.97 70.93-9.58L70.93-9.58L70.93-9.58Q70.90-10.19 70.71-10.62L70.71-10.62L70.71-10.62Q70.51-11.05 70.11-11.28L70.11-11.28L70.11-11.28Q69.71-11.52 68.98-11.52L68.98-11.52L68.98-11.52Q68.30-11.52 67.55-11.22L67.55-11.22L67.55-11.22Q66.79-10.92 66.07-10.53L66.07-10.53L66.07-10.53Q65.34-10.14 64.58-9.62L64.58-9.62L64.58 0L62.50 0" fill="#f4f3e4" stroke="none" stroke-width="none" transform="translate(-51.26998293399811,7.210678213292907)" style="fill: rgb(244, 243, 228);"></path></g><g class="path" style="transform: scale(1); transform-origin: 30.2px 3.70068px; animation: 1s linear -0.18s infinite normal forwards running beat-9bc6f1dd-a896-49d6-91c7-933ead7ce6de;"><path d="M86.94-12.77L86.94 1.25L86.94 1.25Q86.94 2.21 86.74 3.12L86.74 3.12L86.74 3.12Q86.53 4.03 85.94 4.75L85.94 4.75L85.94 4.75Q85.36 5.46 84.31 5.89L84.31 5.89L84.31 5.89Q83.25 6.32 81.54 6.32L81.54 6.32L81.54 6.32Q80.44 6.29 79.64 6.19L79.64 6.19L79.64 6.19Q78.83 6.08 78.10 5.89L78.10 5.89L78.10 5.89Q77.38 5.69 76.78 5.43L76.78 5.43L77.32 3.61L77.32 3.61Q78.34 4.06 79.39 4.29L79.39 4.29L79.39 4.29Q80.44 4.52 81.28 4.52L81.28 4.52L81.28 4.52Q82.19 4.52 82.86 4.34L82.86 4.34L82.86 4.34Q83.54 4.16 83.99 3.73L83.99 3.73L83.99 3.73Q84.45 3.30 84.67 2.60L84.67 2.60L84.67 2.60Q84.89 1.90 84.89 0.86L84.89 0.86L84.89-1.04L84.89-1.04Q84.34-0.68 83.76-0.38L83.76-0.38L83.76-0.38Q83.17-0.08 82.51 0.13L82.51 0.13L82.51 0.13Q81.85 0.34 81.22 0.34L81.22 0.34L81.22 0.34Q78.81 0.34 77.40-1.37L77.40-1.37L77.40-1.37Q76.00-3.07 76.00-6.45L76.00-6.45L76.00-6.45Q76.00-8.40 76.61-9.71L76.61-9.71L76.61-9.71Q77.22-11.02 78.16-11.83L78.16-11.83L78.16-11.83Q79.09-12.64 80.21-12.99L80.21-12.99L80.21-12.99Q81.33-13.34 82.34-13.34L82.34-13.34L82.34-13.34Q83.67-13.34 84.77-13.12L84.77-13.12L84.77-13.12Q85.88-12.90 86.94-12.77L86.94-12.77zM81.46-1.48L81.46-1.48L81.46-1.48Q82.03-1.48 82.63-1.69L82.63-1.69L82.63-1.69Q83.23-1.90 83.78-2.18L83.78-2.18L83.78-2.18Q84.34-2.47 84.89-2.86L84.89-2.86L84.89-11.15L84.89-11.15Q84.58-11.23 84.16-11.34L84.16-11.34L84.16-11.34Q83.80-11.39 83.33-11.45L83.33-11.45L83.33-11.45Q82.86-11.52 82.34-11.52L82.34-11.52L82.34-11.52Q81.25-11.52 80.47-11.13L80.47-11.13L80.47-11.13Q79.69-10.74 79.18-10.06L79.18-10.06L79.18-10.06Q78.68-9.39 78.44-8.48L78.44-8.48L78.44-8.48Q78.21-7.57 78.21-6.55L78.21-6.55L78.21-6.55Q78.21-5.64 78.40-4.73L78.40-4.73L78.40-4.73Q78.60-3.82 79.01-3.09L79.01-3.09L79.01-3.09Q79.43-2.37 80.03-1.92L80.03-1.92L80.03-1.92Q80.63-1.48 81.46-1.48" fill="#f4f3e4" stroke="none" stroke-width="none" transform="translate(-51.26998293399811,7.210678213292907)" style="fill: rgb(244, 243, 228);"></path></g><g class="path" style="transform: scale(1); transform-origin: 40.445px 5.67568px; animation: 1s linear -0.12s infinite normal forwards running beat-9bc6f1dd-a896-49d6-91c7-933ead7ce6de;"><path d="M90.14-1.53L90.14-1.53L90.14-1.53Q90.14-2.16 90.58-2.61L90.58-2.61L90.58-2.61Q91.03-3.07 91.68-3.07L91.68-3.07L91.68-3.07Q92.35-3.07 92.82-2.61L92.82-2.61L92.82-2.61Q93.29-2.16 93.29-1.53L93.29-1.53L93.29-1.53Q93.29-0.88 92.82-0.44L92.82-0.44L92.82-0.44Q92.35 0 91.68 0L91.68 0L91.68 0Q91.03 0 90.58-0.44L90.58-0.44L90.58-0.44Q90.14-0.88 90.14-1.53" fill="#f4f3e4" stroke="none" stroke-width="none" transform="translate(-51.26998293399811,7.210678213292907)" style="fill: rgb(244, 243, 228);"></path></g><g class="path" style="transform: scale(1); transform-origin: 46.215px 5.67568px; animation: 1s linear -0.06s infinite normal forwards running beat-9bc6f1dd-a896-49d6-91c7-933ead7ce6de;"><path d="M95.91-1.53L95.91-1.53L95.91-1.53Q95.91-2.16 96.36-2.61L96.36-2.61L96.36-2.61Q96.80-3.07 97.45-3.07L97.45-3.07L97.45-3.07Q98.12-3.07 98.59-2.61L98.59-2.61L98.59-2.61Q99.06-2.16 99.06-1.53L99.06-1.53L99.06-1.53Q99.06-0.88 98.59-0.44L98.59-0.44L98.59-0.44Q98.12 0 97.45 0L97.45 0L97.45 0Q96.80 0 96.36-0.44L96.36-0.44L96.36-0.44Q95.91-0.88 95.91-1.53" fill="#f4f3e4" stroke="none" stroke-width="none" transform="translate(-51.26998293399811,7.210678213292907)" style="fill: rgb(244, 243, 228);"></path></g><g class="path" style="transform: scale(1); transform-origin: 51.99px 5.67568px; animation: 1s linear 0s infinite normal forwards running beat-9bc6f1dd-a896-49d6-91c7-933ead7ce6de;"><path d="M101.69-1.53L101.69-1.53L101.69-1.53Q101.69-2.16 102.13-2.61L102.13-2.61L102.13-2.61Q102.57-3.07 103.22-3.07L103.22-3.07L103.22-3.07Q103.90-3.07 104.36-2.61L104.36-2.61L104.36-2.61Q104.83-2.16 104.83-1.53L104.83-1.53L104.83-1.53Q104.83-0.88 104.36-0.44L104.36-0.44L104.36-0.44Q103.90 0 103.22 0L103.22 0L103.22 0Q102.57 0 102.13-0.44L102.13-0.44L102.13-0.44Q101.69-0.88 101.69-1.53" fill="#f4f3e4" stroke="none" stroke-width="none" transform="translate(-51.26998293399811,7.210678213292907)" style="fill: rgb(244, 243, 228);"></path></g></g>
</g>
</g>
<style id="beat-9bc6f1dd-a896-49d6-91c7-933ead7ce6de" data-anikit="">@keyframes beat-9bc6f1dd-a896-49d6-91c7-933ead7ce6de
{
  0% {
    animation-timing-function: cubic-bezier(0.1028,0.2484,0.1372,0.849);
    transform: scale(1);
  }
  34% {
    animation-timing-function: cubic-bezier(0.7116,0.2095,0.8159,0.6876);
    transform: scale(1.2);
  }
  68% {
    animation-timing-function: cubic-bezier(0.1475,0.2888,0.294,0.883);
    transform: scale(1.0268);
  }
  84% {
    animation-timing-function: cubic-bezier(0.8176,0.2193,0.867,0.6889);
    transform: scale(1.0932);
  }
  100% {
    transform: scale(1);
  }
}</style></svg>