<?xml version="1.0" encoding="utf-8"?>
<svg xmlns="http://www.w3.org/2000/svg" style="margin: auto; display: block; shape-rendering: auto;" width="289" height="83" preserveAspectRatio="xMidYMid">
<style type="text/css">
  text {
    text-anchor: middle; font-size: 44px; opacity: 0;
  }
</style>
<g style="transform-origin: 144.5px 41.5px; transform: scale(0.55);">
<g transform="translate(144.5,41.5)">
  <g transform="translate(0,0)"><g class="path" style="transform: scale(1); transform-origin: -235.4px -5.64688px; animation: 1s linear -0.621176s infinite normal forwards running beat-928c6a1a-3880-4b88-97e7-ea510f63c013;"><path d="M36.08-53.52L34.96-47.04L34.96-47.04Q33.04-47.52 30.96-47.92L30.96-47.92L30.96-47.92Q29.12-48.32 26.76-48.60L26.76-48.60L26.76-48.60Q24.40-48.88 21.84-48.88L21.84-48.88L21.84-48.88Q15.92-48.88 13.36-47.08L13.36-47.08L13.36-47.08Q10.80-45.28 10.80-41.52L10.80-41.52L10.80-41.52Q10.88-38.56 12.96-36.52L12.96-36.52L12.96-36.52Q15.04-34.48 18.16-32.76L18.16-32.76L18.16-32.76Q21.28-31.04 25-29.40L25-29.40L25-29.40Q28.72-27.76 31.84-25.64L31.84-25.64L31.84-25.64Q34.96-23.52 37.08-20.68L37.08-20.68L37.08-20.68Q39.20-17.84 39.20-13.76L39.20-13.76L39.20-13.76Q39.20-9.04 37.16-6.16L37.16-6.16L37.16-6.16Q35.12-3.28 32-1.68L32-1.68L32-1.68Q28.88-0.08 25.16 0.48L25.16 0.48L25.16 0.48Q21.44 1.04 18.08 1.04L18.08 1.04L18.08 1.04Q14.88 1.04 12.24 0.64L12.24 0.64L12.24 0.64Q9.60 0.24 7.68-0.24L7.68-0.24L7.68-0.24Q5.44-0.80 3.60-1.52L3.60-1.52L5.20-8L5.20-8Q7.04-7.20 9.12-6.64L9.12-6.64L9.12-6.64Q10.96-6.16 13.24-5.76L13.24-5.76L13.24-5.76Q15.52-5.36 18.08-5.36L18.08-5.36L18.08-5.36Q21.20-5.36 23.80-5.76L23.80-5.76L23.80-5.76Q26.40-6.16 28.32-7.04L28.32-7.04L28.32-7.04Q30.24-7.92 31.32-9.36L31.32-9.36L31.32-9.36Q32.40-10.80 32.40-12.88L32.40-12.88L32.40-12.88Q32.32-16 30.36-17.96L30.36-17.96L30.36-17.96Q28.40-19.92 25.16-21.72L25.16-21.72L25.16-21.72Q21.92-23.52 18.20-25.20L18.20-25.20L18.20-25.20Q14.48-26.88 11.36-29.04L11.36-29.04L11.36-29.04Q8.24-31.20 6.12-34.16L6.12-34.16L6.12-34.16Q4-37.12 4-41.52L4-41.52L4-41.52Q4-44.08 4.88-46.56L4.88-46.56L4.88-46.56Q5.76-49.04 7.88-50.96L7.88-50.96L7.88-50.96Q10-52.88 13.40-54.08L13.40-54.08L13.40-54.08Q16.80-55.28 21.84-55.28L21.84-55.28L21.84-55.28Q24.72-55.28 27.32-55L27.32-55L27.32-55Q29.92-54.72 31.84-54.40L31.84-54.40L31.84-54.40Q34.08-54 36.08-53.52L36.08-53.52" fill="#e7eded" stroke="none" stroke-width="none" transform="translate(-256.7999815940857,21.4731227684021)" style="fill: rgb(231, 237, 237);"></path></g><g class="path" style="transform: scale(1); transform-origin: -194.2px 1.47312px; animation: 1s linear -0.582353s infinite normal forwards running beat-928c6a1a-3880-4b88-97e7-ea510f63c013;"><path d="M76.40-6.32L77.60-0.96L77.60-0.96Q75.76-0.40 73.80 0L73.80 0L73.80 0Q71.84 0.40 69.48 0.72L69.48 0.72L69.48 0.72Q67.12 1.04 64.56 1.04L64.56 1.04L64.56 1.04Q60.56 1.04 57.12-0.08L57.12-0.08L57.12-0.08Q53.68-1.20 51.12-3.68L51.12-3.68L51.12-3.68Q48.56-6.16 47.08-10.12L47.08-10.12L47.08-10.12Q45.60-14.08 45.60-19.84L45.60-19.84L45.60-19.84Q45.60-25.04 47.04-29L47.04-29L47.04-29Q48.48-32.96 51-35.64L51-35.64L51-35.64Q53.52-38.32 56.92-39.68L56.92-39.68L56.92-39.68Q60.32-41.04 64.32-41.04L64.32-41.04L64.32-41.04Q68.24-41.04 71.12-39.52L71.12-39.52L71.12-39.52Q74-38 75.88-35.40L75.88-35.40L75.88-35.40Q77.76-32.80 78.68-29.32L78.68-29.32L78.68-29.32Q79.60-25.84 79.60-22L79.60-22L78.40-18.48L52.56-18.48L52.56-18.48Q52.56-16 53.20-13.52L53.20-13.52L53.20-13.52Q53.84-11.04 55.40-9.04L55.40-9.04L55.40-9.04Q56.96-7.04 59.48-5.80L59.48-5.80L59.48-5.80Q62-4.56 65.76-4.56L65.76-4.56L65.76-4.56Q68.16-4.56 70.16-4.84L70.16-4.84L70.16-4.84Q72.16-5.12 73.64-5.48L73.64-5.48L73.64-5.48Q75.12-5.84 76.40-6.32L76.40-6.32zM52.80-23.60L72.96-23.60L72.96-23.60Q72.96-24.16 72.72-26.08L72.72-26.08L72.72-26.08Q72.48-28 71.60-30.08L71.60-30.08L71.60-30.08Q70.72-32.16 68.88-33.80L68.88-33.80L68.88-33.80Q67.04-35.44 64-35.44L64-35.44L64-35.44Q60.64-35.44 58.48-34.04L58.48-34.04L58.48-34.04Q56.32-32.64 55.04-30.72L55.04-30.72L55.04-30.72Q53.76-28.80 53.28-26.80L53.28-26.80L53.28-26.80Q52.80-24.80 52.80-23.60L52.80-23.60" fill="#e7eded" stroke="none" stroke-width="none" transform="translate(-256.7999815940857,21.4731227684021)" style="fill: rgb(231, 237, 237);"></path></g><g class="path" style="transform: scale(1); transform-origin: -152.4px 0.953123px; animation: 1s linear -0.543529s infinite normal forwards running beat-928c6a1a-3880-4b88-97e7-ea510f63c013;"><path d="M88.40 0L88.40-32.24L88.40-32.24Q88.48-33.92 88-39.52L88-39.52L93.92-40.32L94.80-35.20L94.80-35.20Q97.20-36.80 99.56-38L99.56-38L99.56-38Q101.92-39.20 104.40-40.12L104.40-40.12L104.40-40.12Q106.88-41.04 109.20-41.04L109.20-41.04L109.20-41.04Q112.48-41.04 114.68-40.28L114.68-40.28L114.68-40.28Q116.88-39.52 118.24-37.76L118.24-37.76L118.24-37.76Q119.60-36 120.20-33.12L120.20-33.12L120.20-33.12Q120.80-30.24 120.80-25.92L120.80-25.92L120.80 0L114.40 0L114.40-25.20L114.40-25.20Q114.40-27.60 114.32-29.48L114.32-29.48L114.32-29.48Q114.24-31.36 113.64-32.68L113.64-32.68L113.64-32.68Q113.04-34 111.80-34.72L111.80-34.72L111.80-34.72Q110.56-35.44 108.32-35.44L108.32-35.44L108.32-35.44Q106.24-35.44 103.92-34.52L103.92-34.52L103.92-34.52Q101.60-33.60 99.36-32.40L99.36-32.40L99.36-32.40Q97.12-31.20 94.80-29.60L94.80-29.60L94.80 0L88.40 0" fill="#e7eded" stroke="none" stroke-width="none" transform="translate(-256.7999815940857,21.4731227684021)" style="fill: rgb(231, 237, 237);"></path></g><g class="path" style="transform: scale(1); transform-origin: -109.8px -8.32688px; animation: 1s linear -0.504706s infinite normal forwards running beat-928c6a1a-3880-4b88-97e7-ea510f63c013;"><path d="M157.20-8.80L157.20-34.24L157.20-34.24Q154.32-35.04 152.72-35.24L152.72-35.24L152.72-35.24Q151.12-35.44 149.44-35.44L149.44-35.44L149.44-35.44Q146.08-35.44 143.68-34.24L143.68-34.24L143.68-34.24Q141.28-33.04 139.72-30.92L139.72-30.92L139.72-30.92Q138.16-28.80 137.44-26.04L137.44-26.04L137.44-26.04Q136.72-23.28 136.72-20.16L136.72-20.16L136.72-20.16Q136.72-17.36 137.32-14.56L137.32-14.56L137.32-14.56Q137.92-11.76 139.20-9.52L139.20-9.52L139.20-9.52Q140.48-7.28 142.32-5.92L142.32-5.92L142.32-5.92Q144.16-4.56 146.72-4.56L146.72-4.56L146.72-4.56Q148.48-4.56 150.36-5.20L150.36-5.20L150.36-5.20Q152.24-5.84 153.84-6.68L153.84-6.68L153.84-6.68Q155.44-7.52 157.20-8.80L157.20-8.80zM157.92 0.64L157.28-3.20L157.28-3.20Q155.44-1.92 153.72-1.08L153.72-1.08L153.72-1.08Q152-0.24 149.96 0.40L149.96 0.40L149.96 0.40Q147.92 1.04 146 1.04L146 1.04L146 1.04Q138.48 1.04 134.20-4.28L134.20-4.28L134.20-4.28Q129.92-9.60 129.92-19.84L129.92-19.84L129.92-19.84Q129.92-25.92 131.88-30L131.88-30L131.88-30Q133.84-34.08 136.80-36.52L136.80-36.52L136.80-36.52Q139.76-38.96 143.16-40L143.16-40L143.16-40Q146.56-41.04 149.44-41.04L149.44-41.04L149.44-41.04Q150.88-41.04 152.48-40.84L152.48-40.84L152.48-40.84Q154.08-40.64 157.20-39.84L157.20-39.84L157.20-59.92L163.60-60.64L163.60-7.28L163.60-7.28Q163.60-6.16 163.64-4.92L163.64-4.92L163.64-4.92Q163.68-3.68 163.80-2.48L163.80-2.48L163.80-2.48Q163.92-1.28 164.08 0L164.08 0L157.92 0.64" fill="#e7eded" stroke="none" stroke-width="none" transform="translate(-256.7999815940857,21.4731227684021)" style="fill: rgb(231, 237, 237);"></path></g><g class="path" style="transform: scale(1); transform-origin: -78.4px 0.953123px; animation: 1s linear -0.465882s infinite normal forwards running beat-928c6a1a-3880-4b88-97e7-ea510f63c013;"><path d="M175.20 0L175.20-40.32L181.60-41.04L181.60 0L175.20 0" fill="#e7eded" stroke="none" stroke-width="none" transform="translate(-256.7999815940857,21.4731227684021)" style="fill: rgb(231, 237, 237);"></path></g><g class="path" style="transform: scale(1); transform-origin: -78.2px -30.2869px; animation: 1s linear -0.427059s infinite normal forwards running beat-928c6a1a-3880-4b88-97e7-ea510f63c013;"><path d="M174.16-51.76L174.16-51.76L174.16-51.76Q174.16-53.60 175.40-54.84L175.40-54.84L175.40-54.84Q176.64-56.08 178.48-56.08L178.48-56.08L178.48-56.08Q180.40-56.08 181.72-54.84L181.72-54.84L181.72-54.84Q183.04-53.60 183.04-51.76L183.04-51.76L183.04-51.76Q183.04-49.92 181.72-48.68L181.72-48.68L181.72-48.68Q180.40-47.44 178.48-47.44L178.48-47.44L178.48-47.44Q176.64-47.44 175.40-48.68L175.40-48.68L175.40-48.68Q174.16-49.92 174.16-51.76" fill="#e7eded" stroke="none" stroke-width="none" transform="translate(-256.7999815940857,21.4731227684021)" style="fill: rgb(231, 237, 237);"></path></g><g class="path" style="transform: scale(1); transform-origin: -47.6px 0.953123px; animation: 1s linear -0.388235s infinite normal forwards running beat-928c6a1a-3880-4b88-97e7-ea510f63c013;"><path d="M193.20 0L193.20-32.24L193.20-32.24Q193.28-33.92 192.80-39.52L192.80-39.52L198.72-40.32L199.60-35.20L199.60-35.20Q202-36.80 204.36-38L204.36-38L204.36-38Q206.72-39.20 209.20-40.12L209.20-40.12L209.20-40.12Q211.68-41.04 214-41.04L214-41.04L214-41.04Q217.28-41.04 219.48-40.28L219.48-40.28L219.48-40.28Q221.68-39.52 223.04-37.76L223.04-37.76L223.04-37.76Q224.40-36 225-33.12L225-33.12L225-33.12Q225.60-30.24 225.60-25.92L225.60-25.92L225.60 0L219.20 0L219.20-25.20L219.20-25.20Q219.20-27.60 219.12-29.48L219.12-29.48L219.12-29.48Q219.04-31.36 218.44-32.68L218.44-32.68L218.44-32.68Q217.84-34 216.60-34.72L216.60-34.72L216.60-34.72Q215.36-35.44 213.12-35.44L213.12-35.44L213.12-35.44Q211.04-35.44 208.72-34.52L208.72-34.52L208.72-34.52Q206.40-33.60 204.16-32.40L204.16-32.40L204.16-32.40Q201.92-31.20 199.60-29.60L199.60-29.60L199.60 0L193.20 0" fill="#e7eded" stroke="none" stroke-width="none" transform="translate(-256.7999815940857,21.4731227684021)" style="fill: rgb(231, 237, 237);"></path></g><g class="path" style="transform: scale(1); transform-origin: -5.24002px 10.6731px; animation: 1s linear -0.349412s infinite normal forwards running beat-928c6a1a-3880-4b88-97e7-ea510f63c013;"><path d="M268.40-39.28L268.40 3.84L268.40 3.84Q268.40 6.80 267.76 9.60L267.76 9.60L267.76 9.60Q267.12 12.40 265.32 14.60L265.32 14.60L265.32 14.60Q263.52 16.80 260.28 18.12L260.28 18.12L260.28 18.12Q257.04 19.44 251.76 19.44L251.76 19.44L251.76 19.44Q248.40 19.36 245.92 19.04L245.92 19.04L245.92 19.04Q243.44 18.72 241.20 18.12L241.20 18.12L241.20 18.12Q238.96 17.52 237.12 16.72L237.12 16.72L238.80 11.12L238.80 11.12Q241.92 12.48 245.16 13.20L245.16 13.20L245.16 13.20Q248.40 13.92 250.96 13.92L250.96 13.92L250.96 13.92Q253.76 13.92 255.84 13.36L255.84 13.36L255.84 13.36Q257.92 12.80 259.32 11.48L259.32 11.48L259.32 11.48Q260.72 10.16 261.40 8L261.40 8L261.40 8Q262.08 5.84 262.08 2.64L262.08 2.64L262.08-3.20L262.08-3.20Q260.40-2.08 258.60-1.16L258.60-1.16L258.60-1.16Q256.80-0.24 254.76 0.40L254.76 0.40L254.76 0.40Q252.72 1.04 250.80 1.04L250.80 1.04L250.80 1.04Q243.36 1.04 239.04-4.20L239.04-4.20L239.04-4.20Q234.72-9.44 234.72-19.84L234.72-19.84L234.72-19.84Q234.72-25.84 236.60-29.88L236.60-29.88L236.60-29.88Q238.48-33.92 241.36-36.40L241.36-36.40L241.36-36.40Q244.24-38.88 247.68-39.96L247.68-39.96L247.68-39.96Q251.12-41.04 254.24-41.04L254.24-41.04L254.24-41.04Q258.32-41.04 261.72-40.36L261.72-40.36L261.72-40.36Q265.12-39.68 268.40-39.28L268.40-39.28zM251.52-4.56L251.52-4.56L251.52-4.56Q253.28-4.56 255.12-5.20L255.12-5.20L255.12-5.20Q256.96-5.84 258.68-6.72L258.68-6.72L258.68-6.72Q260.40-7.60 262.08-8.80L262.08-8.80L262.08-34.32L262.08-34.32Q261.12-34.56 259.84-34.88L259.84-34.88L259.84-34.88Q258.72-35.04 257.28-35.24L257.28-35.24L257.28-35.24Q255.84-35.44 254.24-35.44L254.24-35.44L254.24-35.44Q250.88-35.44 248.48-34.24L248.48-34.24L248.48-34.24Q246.08-33.04 244.52-30.96L244.52-30.96L244.52-30.96Q242.96-28.88 242.24-26.08L242.24-26.08L242.24-26.08Q241.52-23.28 241.52-20.16L241.52-20.16L241.52-20.16Q241.52-17.36 242.12-14.56L242.12-14.56L242.12-14.56Q242.72-11.76 244-9.52L244-9.52L244-9.52Q245.28-7.28 247.12-5.92L247.12-5.92L247.12-5.92Q248.96-4.56 251.52-4.56" fill="#e7eded" stroke="none" stroke-width="none" transform="translate(-256.7999815940857,21.4731227684021)" style="fill: rgb(231, 237, 237);"></path></g><g class="path" style="transform: scale(1); transform-origin: 68.68px 0.953123px; animation: 1s linear -0.310588s infinite normal forwards running beat-928c6a1a-3880-4b88-97e7-ea510f63c013;"><path d="M298.32 0L298.32-32.96L298.32-32.96Q298.32-35.68 297.84-39.52L297.84-39.52L303.84-40.32L304.72-35.28L304.72-35.28Q306.88-36.88 308.96-38.08L308.96-38.08L308.96-38.08Q311.04-39.28 313.44-40.16L313.44-40.16L313.44-40.16Q315.84-41.04 318.32-41.04L318.32-41.04L318.32-41.04Q322.32-41.04 324.64-39.64L324.64-39.64L324.64-39.64Q326.96-38.24 328.08-34.88L328.08-34.88L328.08-34.88Q331.36-37.20 334.92-39.12L334.92-39.12L334.92-39.12Q338.48-41.04 342.32-41.04L342.32-41.04L342.32-41.04Q345.28-41.04 347.36-40.28L347.36-40.28L347.36-40.28Q349.44-39.52 350.72-37.76L350.72-37.76L350.72-37.76Q352-36 352.56-33.12L352.56-33.12L352.56-33.12Q353.12-30.24 353.12-25.92L353.12-25.92L353.12 0L346.72 0L346.72-25.20L346.72-25.20Q346.72-27.60 346.64-29.48L346.64-29.48L346.64-29.48Q346.56-31.36 346.08-32.68L346.08-32.68L346.08-32.68Q345.60-34 344.52-34.72L344.52-34.72L344.52-34.72Q343.44-35.44 341.44-35.44L341.44-35.44L341.44-35.44Q339.60-35.44 337.96-34.92L337.96-34.92L337.96-34.92Q336.32-34.40 334.56-33.44L334.56-33.44L334.56-33.44Q332.80-32.48 329.12-29.52L329.12-29.52L329.12 0L322.72 0L322.72-25.20L322.72-25.20Q322.72-27.60 322.64-29.48L322.64-29.48L322.64-29.48Q322.56-31.36 322.08-32.68L322.08-32.68L322.08-32.68Q321.60-34 320.52-34.72L320.52-34.72L320.52-34.72Q319.44-35.44 317.44-35.44L317.44-35.44L317.44-35.44Q315.36-35.44 313.12-34.56L313.12-34.56L313.12-34.56Q310.88-33.68 308.88-32.48L308.88-32.48L308.88-32.48Q306.88-31.28 304.72-29.68L304.72-29.68L304.72 0L298.32 0" fill="#e7eded" stroke="none" stroke-width="none" transform="translate(-256.7999815940857,21.4731227684021)" style="fill: rgb(231, 237, 237);"></path></g><g class="path" style="transform: scale(1); transform-origin: 120.56px 1.47312px; animation: 1s linear -0.271765s infinite normal forwards running beat-928c6a1a-3880-4b88-97e7-ea510f63c013;"><path d="M386.80-9.36L386.80-18.48L386.80-18.48Q385.20-18.40 383.76-18.32L383.76-18.32L383.76-18.32Q382.32-18.24 380.92-18.12L380.92-18.12L380.92-18.12Q379.52-18 378.40-17.84L378.40-17.84L378.40-17.84Q372.64-17.12 370.24-15.32L370.24-15.32L370.24-15.32Q367.84-13.52 367.84-10.16L367.84-10.16L367.84-10.16Q367.84-7.36 369.56-5.96L369.56-5.96L369.56-5.96Q371.28-4.56 374.08-4.56L374.08-4.56L374.08-4.56Q377.92-4.56 380.92-5.88L380.92-5.88L380.92-5.88Q383.92-7.20 386.80-9.36L386.80-9.36zM387.52 0.64L386.72-3.76L386.72-3.76Q382.96-1.60 379.72-0.28L379.72-0.28L379.72-0.28Q376.48 1.04 372.72 1.04L372.72 1.04L372.72 1.04Q367.36 1.04 364.20-1.56L364.20-1.56L364.20-1.56Q361.04-4.16 361.04-10.16L361.04-10.16L361.04-10.16Q361.04-13.28 362.64-15.60L362.64-15.60L362.64-15.60Q364.24-17.92 366.84-19.48L366.84-19.48L366.84-19.48Q369.44-21.04 372.72-21.92L372.72-21.92L372.72-21.92Q376-22.80 379.44-23.04L379.44-23.04L379.44-23.04Q380.88-23.20 383.20-23.32L383.20-23.32L383.20-23.32Q385.52-23.44 386.80-23.52L386.80-23.52L386.80-23.52Q386.80-26.32 386.64-28.52L386.64-28.52L386.64-28.52Q386.48-30.72 385.68-32.28L385.68-32.28L385.68-32.28Q384.88-33.84 383.32-34.64L383.32-34.64L383.32-34.64Q381.76-35.44 378.88-35.44L378.88-35.44L378.88-35.44Q376.56-35.44 374.40-35.16L374.40-35.16L374.40-35.16Q372.24-34.88 370.56-34.56L370.56-34.56L370.56-34.56Q368.56-34.16 366.88-33.68L366.88-33.68L365.60-39.20L365.60-39.20Q367.60-39.68 369.92-40.08L369.92-40.08L369.92-40.08Q371.92-40.48 374.56-40.76L374.56-40.76L374.56-40.76Q377.20-41.04 380.24-41.04L380.24-41.04L380.24-41.04Q384.32-41.04 386.84-39.84L386.84-39.84L386.84-39.84Q389.36-38.64 390.76-36.60L390.76-36.60L390.76-36.60Q392.16-34.56 392.68-31.96L392.68-31.96L392.68-31.96Q393.20-29.36 393.20-26.48L393.20-26.48L393.20-7.28L393.20-7.28Q393.20-6.16 393.24-4.92L393.24-4.92L393.24-4.92Q393.28-3.68 393.40-2.48L393.40-2.48L393.40-2.48Q393.52-1.28 393.68 0L393.68 0L387.52 0.64" fill="#e7eded" stroke="none" stroke-width="none" transform="translate(-256.7999815940857,21.4731227684021)" style="fill: rgb(231, 237, 237);"></path></g><g class="path" style="transform: scale(1); transform-origin: 150.88px 0.953123px; animation: 1s linear -0.232941s infinite normal forwards running beat-928c6a1a-3880-4b88-97e7-ea510f63c013;"><path d="M404.48 0L404.48-40.32L410.88-41.04L410.88 0L404.48 0" fill="#e7eded" stroke="none" stroke-width="none" transform="translate(-256.7999815940857,21.4731227684021)" style="fill: rgb(231, 237, 237);"></path></g><g class="path" style="transform: scale(1); transform-origin: 151.08px -30.2869px; animation: 1s linear -0.194118s infinite normal forwards running beat-928c6a1a-3880-4b88-97e7-ea510f63c013;"><path d="M403.44-51.76L403.44-51.76L403.44-51.76Q403.44-53.60 404.68-54.84L404.68-54.84L404.68-54.84Q405.92-56.08 407.76-56.08L407.76-56.08L407.76-56.08Q409.68-56.08 411-54.84L411-54.84L411-54.84Q412.32-53.60 412.32-51.76L412.32-51.76L412.32-51.76Q412.32-49.92 411-48.68L411-48.68L411-48.68Q409.68-47.44 407.76-47.44L407.76-47.44L407.76-47.44Q405.92-47.44 404.68-48.68L404.68-48.68L404.68-48.68Q403.44-49.92 403.44-51.76" fill="#e7eded" stroke="none" stroke-width="none" transform="translate(-256.7999815940857,21.4731227684021)" style="fill: rgb(231, 237, 237);"></path></g><g class="path" style="transform: scale(1); transform-origin: 168.8px -8.84688px; animation: 1s linear -0.155294s infinite normal forwards running beat-928c6a1a-3880-4b88-97e7-ea510f63c013;"><path d="M422.40 0L422.40-59.92L428.80-60.64L428.80 0L422.40 0" fill="#e7eded" stroke="none" stroke-width="none" transform="translate(-256.7999815940857,21.4731227684021)" style="fill: rgb(231, 237, 237);"></path></g><g class="path" style="transform: scale(1); transform-origin: 194.64px 1.47312px; animation: 1s linear -0.116471s infinite normal forwards running beat-928c6a1a-3880-4b88-97e7-ea510f63c013;"><path d="M463.20-39.36L462.08-33.68L462.08-33.68Q458.72-34.72 456.12-35.08L456.12-35.08L456.12-35.08Q453.52-35.44 451.36-35.44L451.36-35.44L451.36-35.44Q448.56-35.44 446.68-34.08L446.68-34.08L446.68-34.08Q444.80-32.72 444.80-30.56L444.80-30.56L444.80-30.56Q444.88-28.64 446.48-27.28L446.48-27.28L446.48-27.28Q448.08-25.92 450.20-24.84L450.20-24.84L450.20-24.84Q452.32-23.76 454.92-22.48L454.92-22.48L454.92-22.48Q457.52-21.20 459.80-19.60L459.80-19.60L459.80-19.60Q462.08-18 463.52-15.76L463.52-15.76L463.52-15.76Q464.96-13.52 465.04-10.40L465.04-10.40L465.04-10.40Q464.96-7.04 463.56-4.84L463.56-4.84L463.56-4.84Q462.16-2.64 459.96-1.32L459.96-1.32L459.96-1.32Q457.76 0 455.20 0.52L455.20 0.52L455.20 0.52Q452.64 1.04 450.40 1.04L450.40 1.04L450.40 1.04Q447.52 1.04 444.44 0.72L444.44 0.72L444.44 0.72Q441.36 0.40 437.84-0.64L437.84-0.64L439.04-6.40L439.04-6.40Q442.64-5.44 445.60-5L445.60-5L445.60-5Q448.56-4.56 450.48-4.56L450.48-4.56L450.48-4.56Q451.92-4.56 453.32-4.88L453.32-4.88L453.32-4.88Q454.72-5.20 455.84-5.80L455.84-5.80L455.84-5.80Q456.96-6.40 457.64-7.36L457.64-7.36L457.64-7.36Q458.32-8.32 458.32-9.52L458.32-9.52L458.32-9.52Q458.24-11.76 456.80-13.32L456.80-13.32L456.80-13.32Q455.36-14.88 453.08-16.12L453.08-16.12L453.08-16.12Q450.80-17.36 448.20-18.60L448.20-18.60L448.20-18.60Q445.60-19.84 443.32-21.48L443.32-21.48L443.32-21.48Q441.04-23.12 439.52-25.40L439.52-25.40L439.52-25.40Q438-27.68 438-31.04L438-31.04L438-31.04Q438-33.44 439.24-35.32L439.24-35.32L439.24-35.32Q440.48-37.20 442.44-38.44L442.44-38.44L442.44-38.44Q444.40-39.68 446.76-40.36L446.76-40.36L446.76-40.36Q449.12-41.04 451.36-41.04L451.36-41.04L451.36-41.04Q453.68-41.04 456.56-40.68L456.56-40.68L456.56-40.68Q459.44-40.32 463.20-39.36L463.20-39.36" fill="#e7eded" stroke="none" stroke-width="none" transform="translate(-256.7999815940857,21.4731227684021)" style="fill: rgb(231, 237, 237);"></path></g><g class="path" style="transform: scale(1); transform-origin: 220.04px 16.7531px; animation: 1s linear -0.0776471s infinite normal forwards running beat-928c6a1a-3880-4b88-97e7-ea510f63c013;"><path d="M472-4.72L472-4.72L472-4.72Q472-6.64 473.36-8.04L473.36-8.04L473.36-8.04Q474.72-9.44 476.72-9.44L476.72-9.44L476.72-9.44Q478.80-9.44 480.24-8.04L480.24-8.04L480.24-8.04Q481.68-6.64 481.68-4.72L481.68-4.72L481.68-4.72Q481.68-2.72 480.24-1.36L480.24-1.36L480.24-1.36Q478.80 0 476.72 0L476.72 0L476.72 0Q474.72 0 473.36-1.36L473.36-1.36L473.36-1.36Q472-2.72 472-4.72" fill="#e7eded" stroke="none" stroke-width="none" transform="translate(-256.7999815940857,21.4731227684021)" style="fill: rgb(231, 237, 237);"></path></g><g class="path" style="transform: scale(1); transform-origin: 237.8px 16.7531px; animation: 1s linear -0.0388235s infinite normal forwards running beat-928c6a1a-3880-4b88-97e7-ea510f63c013;"><path d="M489.76-4.72L489.76-4.72L489.76-4.72Q489.76-6.64 491.12-8.04L491.12-8.04L491.12-8.04Q492.48-9.44 494.48-9.44L494.48-9.44L494.48-9.44Q496.56-9.44 498-8.04L498-8.04L498-8.04Q499.44-6.64 499.44-4.72L499.44-4.72L499.44-4.72Q499.44-2.72 498-1.36L498-1.36L498-1.36Q496.56 0 494.48 0L494.48 0L494.48 0Q492.48 0 491.12-1.36L491.12-1.36L491.12-1.36Q489.76-2.72 489.76-4.72" fill="#e7eded" stroke="none" stroke-width="none" transform="translate(-256.7999815940857,21.4731227684021)" style="fill: rgb(231, 237, 237);"></path></g><g class="path" style="transform: scale(1); transform-origin: 255.56px 16.7531px; animation: 1s linear 0s infinite normal forwards running beat-928c6a1a-3880-4b88-97e7-ea510f63c013;"><path d="M507.52-4.72L507.52-4.72L507.52-4.72Q507.52-6.64 508.88-8.04L508.88-8.04L508.88-8.04Q510.24-9.44 512.24-9.44L512.24-9.44L512.24-9.44Q514.32-9.44 515.76-8.04L515.76-8.04L515.76-8.04Q517.20-6.64 517.20-4.72L517.20-4.72L517.20-4.72Q517.20-2.72 515.76-1.36L515.76-1.36L515.76-1.36Q514.32 0 512.24 0L512.24 0L512.24 0Q510.24 0 508.88-1.36L508.88-1.36L508.88-1.36Q507.52-2.72 507.52-4.72" fill="#e7eded" stroke="none" stroke-width="none" transform="translate(-256.7999815940857,21.4731227684021)" style="fill: rgb(231, 237, 237);"></path></g></g>
</g>
</g>
<style id="beat-928c6a1a-3880-4b88-97e7-ea510f63c013" data-anikit="">@keyframes beat-928c6a1a-3880-4b88-97e7-ea510f63c013
{
  0% {
    animation-timing-function: cubic-bezier(0.1028,0.2484,0.1372,0.849);
    transform: scale(1);
  }
  34% {
    animation-timing-function: cubic-bezier(0.7116,0.2095,0.8159,0.6876);
    transform: scale(1.2);
  }
  68% {
    animation-timing-function: cubic-bezier(0.1475,0.2888,0.294,0.883);
    transform: scale(1.0268);
  }
  84% {
    animation-timing-function: cubic-bezier(0.8176,0.2193,0.867,0.6889);
    transform: scale(1.0932);
  }
  100% {
    transform: scale(1);
  }
}</style></svg>